<svg xmlns="http://www.w3.org/2000/svg" xmlns:xlink="http://www.w3.org/1999/xlink" viewBox="0 0 160 600"><defs><linearGradient id="linear-gradient" x1="11277.28" y1="-12920.5" x2="11436.55" y2="-12920.5" gradientTransform="matrix(-0.01, -0.81, 0.15, 0, 2093.22, 9258.03)" gradientUnits="userSpaceOnUse"><stop offset="0" stop-opacity="0"/><stop offset="1" stop-opacity="0.25"/></linearGradient></defs><title>bg</title><g style="isolation:isolate"><g id="Layer_2" data-name="Layer 2"><g id="Layer_5" data-name="Layer 5"><rect width="160" height="127" fill="url(#linear-gradient)" style="mix-blend-mode:darken"/><path d="M0,504H160V367C109.22,379.65,56.67,403,0,427Z" fill="#ffd237"/><rect y="416" width="160" height="184" fill="#006aff"/><path d="M0,479H160V407C116.07,391.14,66,378,0,371Z" fill="#006aff"/><polygon points="132 527 160 555 160 600 109.24 600 82 527 132 527" fill="#0d4599"/><path d="M50.92,587.26c.34-.24.68-.49,1-.75,4.27-3.41,6.74-8.21,8.18-13.23,1.63-5.7,1.94-12.16-1.49-18-9.82-16.62-29.25-7.69-36.84,1.3-4.38,5.19-6.42,12.16-4.2,19S26.81,589,35,590.57A21.3,21.3,0,0,0,50.92,587.26Z" fill="#f2a619"/><rect x="38" y="561" width="3" height="39" fill="#c88205"/><polygon points="82 527 110 555 110 600 53 600 53 555 82 527" fill="#e0f2ff"/><rect x="73" y="575" width="17" height="25" fill="#006aff"/><path d="M153,592H119V564h34Zm-31-3h28V567H122Z" fill="#e0f2ff"/><path d="M78.84,64.69a9,9,0,0,1-3.77-.76,8.59,8.59,0,0,1-2.84-2A9.21,9.21,0,0,1,70.45,59a9.63,9.63,0,0,1,0-6.85,9.06,9.06,0,0,1,1.78-2.92,8.53,8.53,0,0,1,2.84-2,9.88,9.88,0,0,1,7.55,0,8.72,8.72,0,0,1,4.61,5,9.54,9.54,0,0,1-1.78,9.77,8.76,8.76,0,0,1-2.83,2A9,9,0,0,1,78.84,64.69Zm0-2a6.32,6.32,0,0,0,2.77-.6,6.74,6.74,0,0,0,2.09-1.59A7.45,7.45,0,0,0,85,58.19a7.71,7.71,0,0,0,.47-2.65A7.9,7.9,0,0,0,85,52.87a7.38,7.38,0,0,0-1.3-2.27,6.32,6.32,0,0,0-4.86-2.16,6.27,6.27,0,0,0-2.78.59A6.5,6.5,0,0,0,74,50.6a7.24,7.24,0,0,0-1.32,2.27,7.92,7.92,0,0,0,0,5.32A7.08,7.08,0,0,0,74,60.45,6.59,6.59,0,0,0,76.06,62,6.33,6.33,0,0,0,78.84,62.64Z" fill="#fff"/><path d="M96.68,48.54a4,4,0,0,0-1.31-.22,4.34,4.34,0,0,0-.71.06,1.43,1.43,0,0,0-.65.27,1.53,1.53,0,0,0-.47.64,3.12,3.12,0,0,0-.19,1.22l0,2h3.32v1.87H93.37l0,9.91H91.14V54.36h-2.5V52.49h2.5V50.74a5.91,5.91,0,0,1,.42-2.47,3.31,3.31,0,0,1,1-1.32,2.83,2.83,0,0,1,1.3-.53,8.07,8.07,0,0,1,1.21-.1,4.84,4.84,0,0,1,.92.08,3.1,3.1,0,0,1,.65.21v1.93Z" fill="#fff"/><path d="M103.5,48.54a4,4,0,0,0-1.31-.22,4.34,4.34,0,0,0-.71.06,1.43,1.43,0,0,0-.65.27,1.53,1.53,0,0,0-.47.64,3.12,3.12,0,0,0-.19,1.22l0,2h3.32v1.87h-3.32l0,9.91H98V54.36h-2.5V52.49H98V50.74a5.91,5.91,0,0,1,.42-2.47,3.31,3.31,0,0,1,1-1.32,2.84,2.84,0,0,1,1.29-.53,7.72,7.72,0,0,1,1.19-.1,5,5,0,0,1,.95.08,3.1,3.1,0,0,1,.65.21Z" fill="#fff"/><path d="M106.19,59.09a4.7,4.7,0,0,0,.26,1.42,3.8,3.8,0,0,0,.64,1.17,3.12,3.12,0,0,0,1.11.82,4.31,4.31,0,0,0,1.67.29,2.88,2.88,0,0,0,3-1.88h2.29a4.13,4.13,0,0,1-.57,1.43,4.63,4.63,0,0,1-1.1,1.2,5,5,0,0,1-1.58.82,6,6,0,0,1-2,.31,6.37,6.37,0,0,1-2.61-.49,5.26,5.26,0,0,1-1.85-1.33,5.43,5.43,0,0,1-1.1-2,7.85,7.85,0,0,1-.36-2.41,7.35,7.35,0,0,1,.39-2.47,5.94,5.94,0,0,1,1.14-2,5.09,5.09,0,0,1,1.82-1.3,6.28,6.28,0,0,1,2.49-.47,5.66,5.66,0,0,1,2.14.41,5.06,5.06,0,0,1,1.74,1.14,5.36,5.36,0,0,1,1.17,1.71,5.25,5.25,0,0,1,.42,2.1c0,.17,0,.38,0,.64s0,.53-.1.85h-9Zm3.55-5.1a3.59,3.59,0,0,0-2.49.87,3.28,3.28,0,0,0-1,2.49h6.86a3.23,3.23,0,0,0-1-2.47A3.45,3.45,0,0,0,109.74,54Z" fill="#fff"/><path d="M124.39,54.44a4.06,4.06,0,0,0-.57-.09,3.84,3.84,0,0,0-.52,0,3.39,3.39,0,0,0-2.88,1.25,5.32,5.32,0,0,0-1,3.32v5.39h-2.2V52.58h2.2v2.1A3.79,3.79,0,0,1,121,52.91a4.24,4.24,0,0,1,2.3-.67,2.85,2.85,0,0,1,1.09.18v2Z" fill="#fff"/><path d="M130.75,57.81c.45.14.89.28,1.32.45a4.42,4.42,0,0,1,1.14.6,2.85,2.85,0,0,1,.8.92,2.93,2.93,0,0,1,.29,1.37,3.26,3.26,0,0,1-.35,1.56,3.16,3.16,0,0,1-1,1.11,4.49,4.49,0,0,1-1.47.66,7.19,7.19,0,0,1-1.84.22,6.42,6.42,0,0,1-1.88-.26,4.44,4.44,0,0,1-1.56-.8,3.87,3.87,0,0,1-1.07-1.35,4.3,4.3,0,0,1-.4-1.88H127a2.2,2.2,0,0,0,.8,1.92,3.37,3.37,0,0,0,2,.56,3.27,3.27,0,0,0,1.74-.41,1.42,1.42,0,0,0,.64-1.29,1.13,1.13,0,0,0-.27-.8,2.2,2.2,0,0,0-.74-.53,8.32,8.32,0,0,0-1.19-.43q-.7-.2-1.59-.51a12.32,12.32,0,0,1-1.26-.45,3.26,3.26,0,0,1-1-.6,2.46,2.46,0,0,1-.67-.89,3.43,3.43,0,0,1,.08-2.8,2.92,2.92,0,0,1,.94-1.07,4.3,4.3,0,0,1,1.4-.65,6.41,6.41,0,0,1,1.73-.22,5.8,5.8,0,0,1,1.8.28,4.18,4.18,0,0,1,1.44.83,3.87,3.87,0,0,1,1,1.26,3.63,3.63,0,0,1,.35,1.62h-2.19a2,2,0,0,0-.62-1.6,2.52,2.52,0,0,0-1.78-.57,2.64,2.64,0,0,0-1.56.43,1.37,1.37,0,0,0-.63,1.22,1.12,1.12,0,0,0,.23.73,1.75,1.75,0,0,0,.66.49,6.6,6.6,0,0,0,1.06.4Z" fill="#fff"/><path d="M117.53,29.83h3.75l1.08,3.55c.36,1.18.67,2.29,1,3.41h0c.31-1.1.63-2.27,1-3.41l1.14-3.55h2.79l1.12,3.55c.38,1.22.66,2.27,1,3.41h0c.29-1.12.61-2.22,1-3.41l1.08-3.55h3.48l-3.77,11.74h-3.42l-1-2.94c-.36-1.15-.7-2.33-1-3.43h0c-.3,1.1-.64,2.22-1,3.4l-1,3h-3.49Z" fill="#fff"/><rect x="92.27" y="23.63" width="3.8" height="17.95" fill="#fff"/><rect x="98.88" y="23.63" width="3.8" height="17.95" fill="#fff"/><path d="M104.55,35.75A6.39,6.39,0,1,1,111,42a6.24,6.24,0,0,1-6.4-6.23m9.12,0A2.75,2.75,0,1,0,111,38.68a2.77,2.77,0,0,0,2.72-2.93" fill="#fff"/><polygon points="70.31 25.3 70.31 28.75 77.02 28.75 77.05 28.8 70.1 40.59 70.1 41.58 83.18 41.58 83.18 38.12 75.91 38.12 75.89 38.08 82.83 26.29 82.81 26.29 82.81 25.3 70.31 25.3" fill="#fff"/><path d="M87.49,24a2.13,2.13,0,1,1-2.16,2.13A2.15,2.15,0,0,1,87.49,24m-1.9,5.88h3.79V41.57H85.59Z" fill="#fff"/><path d="M47,31.32a.39.39,0,0,1,.44.14c.73.75,3.1,3.42,3.74,4.15a.24.24,0,0,1,0,.37,82,82,0,0,0-12,12.7c-.05.08,0,.08,0,.07a139.32,139.32,0,0,1,21.6-7.36V35.64L40.45,19.5,20,35.62v8C26.23,39.58,40.52,33.22,47,31.32Z" fill="#fff"/><path d="M31.58,59.71a.35.35,0,0,1-.45-.05l-4-4.37c-.11-.12-.12-.19,0-.4,2.77-4.43,8.51-11.38,12.21-14.38.07-.06,0-.1,0-.07A168,168,0,0,0,20,49.85V64.36H60.85V48.73C55.18,50,38.93,55.52,31.58,59.71Z" fill="#fff"/><path d="M139.34,28.66a.47.47,0,0,0-.49-.49h-.52v1.42h.24v-.42h.22l.27.42h.27l-.28-.46A.49.49,0,0,0,139.34,28.66Zm-.52.3h-.27v-.58h.27a.28.28,0,0,1,.27.3A.26.26,0,0,1,138.82,29Z" fill="#fff"/><path d="M138.77,27.67A1.24,1.24,0,1,0,140,28.9,1.23,1.23,0,0,0,138.77,27.67Zm0,2.2a1,1,0,0,1-1-1,1,1,0,1,1,2,0A1,1,0,0,1,138.77,29.87Z" fill="#fff"/><rect width="160" height="600" fill="none"/></g></g></g></svg>