<svg xmlns="http://www.w3.org/2000/svg" viewBox="0 0 160 600"><title>cta</title><g id="Layer_2" data-name="Layer 2"><g id="Layer_13" data-name="Layer 13"><path d="M114.17,364.63h-92c-1.61,0-2.91.95-2.91,2.11v25.32c0,1.17,1.3,2.11,2.91,2.11H138.28c1.61,0,2.92-.94,2.92-2.11V366.74c0-1.16-1.31-2.11-2.92-2.11Z" fill="none" stroke="#fff" stroke-miterlimit="10" stroke-width="1.05"/><path d="M29,380.47l1.68,2.75H29l-1.56-2.56H26.11v2.56h-1.4V374.7h3.14a2.83,2.83,0,0,1,2.91,3A2.86,2.86,0,0,1,29,380.47Zm-2.84-1.06h1.65a1.73,1.73,0,0,0,0-3.45H26.11Z" fill="#fff"/><path d="M37,380.82H32.81a1.39,1.39,0,0,0,1.58,1.39,1.22,1.22,0,0,0,1.26-.65H37a2.43,2.43,0,0,1-2.6,1.8,3,3,0,0,1,0-6,2.57,2.57,0,0,1,2.71,2.69C37.05,380.32,37,380.5,37,380.82Zm-1.27-1a1.27,1.27,0,0,0-1.43-1.36,1.36,1.36,0,0,0-1.51,1.36Z" fill="#fff"/><path d="M43.83,377.55v8.22H42.51v-3.32a2.21,2.21,0,0,1-1.82.91,2.7,2.7,0,0,1-2.78-3,2.77,2.77,0,0,1,2.82-3,2.06,2.06,0,0,1,1.78.91v-.76Zm-1.27,2.83a1.67,1.67,0,1,0-1.68,1.8A1.63,1.63,0,0,0,42.56,380.38Z" fill="#fff"/><path d="M45.47,381.11v-3.56H46.8v3.23c0,.92.29,1.45,1.15,1.45a1.3,1.3,0,0,0,1.38-1.48v-3.2h1.32v5.67H49.33v-.79a1.89,1.89,0,0,1-1.76.93A2,2,0,0,1,45.47,381.11Z" fill="#fff"/><path d="M57.45,380.82H53.24a1.39,1.39,0,0,0,1.58,1.39,1.25,1.25,0,0,0,1.27-.65h1.34a2.43,2.43,0,0,1-2.61,1.8,3,3,0,0,1,0-6,2.57,2.57,0,0,1,2.71,2.69A7.06,7.06,0,0,1,57.45,380.82Zm-1.26-1a1.28,1.28,0,0,0-1.44-1.36,1.36,1.36,0,0,0-1.51,1.36Z" fill="#fff"/><path d="M58.34,381.48h1.33c0,.48.47.82,1.15.82.5,0,.82-.26.82-.67s-.14-.51-.75-.66l-1.13-.31a1.57,1.57,0,0,1-1.24-1.59c0-1,.91-1.67,2.18-1.67s2.24.67,2.24,1.77h-1.3c0-.48-.37-.76-1-.76-.47,0-.81.25-.81.59s.18.51.7.65l1.13.33A1.67,1.67,0,0,1,63,381.6c0,1.11-.87,1.76-2.24,1.76S58.34,382.56,58.34,381.48Z" fill="#fff"/><path d="M67.44,382.05v1.17a7.57,7.57,0,0,1-1,.07c-.64,0-1.83-.09-1.83-2v-2.63h-1v-1.11h1v-1.72h1.32v1.72h1.3v1.11h-1.3V381c0,1,.31,1.11.83,1.11A6,6,0,0,0,67.44,382.05Z" fill="#fff"/><path d="M71.27,380.38a2.77,2.77,0,0,1,2.82-3,2.08,2.08,0,0,1,1.79.91v-.76h1.31v5.67H75.88v-.77a2.21,2.21,0,0,1-1.83.91A2.7,2.7,0,0,1,71.27,380.38Zm4.66,0a1.67,1.67,0,1,0-1.68,1.8A1.64,1.64,0,0,0,75.93,380.38Z" fill="#fff"/><path d="M81.51,380.38a2.72,2.72,0,0,1,2.82-3A2.42,2.42,0,0,1,87,379.57H85.69a1.19,1.19,0,0,0-1.36-1c-.93,0-1.49.65-1.49,1.8s.56,1.8,1.49,1.8,1.22-.33,1.36-.92H87a2.4,2.4,0,0,1-2.69,2.1A2.72,2.72,0,0,1,81.51,380.38Z" fill="#fff"/><path d="M87.87,380.38a2.77,2.77,0,0,1,2.82-3,2.06,2.06,0,0,1,1.79.91v-.76h1.31v5.67H92.48v-.77a2.21,2.21,0,0,1-1.82.91A2.71,2.71,0,0,1,87.87,380.38Zm4.66,0a1.67,1.67,0,1,0-1.68,1.8A1.64,1.64,0,0,0,92.53,380.38Z" fill="#fff"/><path d="M95.07,381.48H96.4c0,.48.47.82,1.15.82.5,0,.82-.26.82-.67s-.14-.51-.74-.66l-1.13-.31a1.57,1.57,0,0,1-1.24-1.59c0-1,.91-1.67,2.17-1.67s2.24.67,2.24,1.77h-1.3c0-.48-.37-.76-1-.76-.47,0-.81.25-.81.59s.18.51.7.65l1.14.33a1.66,1.66,0,0,1,1.31,1.62c0,1.11-.86,1.76-2.24,1.76S95.07,382.56,95.07,381.48Z" fill="#fff"/><path d="M106.3,379.65v3.57H105v-3c0-1.2-.31-1.73-1.24-1.73s-1.35.58-1.35,1.57v3.12h-1.32V374.7h1.32v3.64a2,2,0,0,1,1.85-.94C105.59,377.4,106.3,378.17,106.3,379.65Z" fill="#fff"/><path d="M110.56,380.38a3,3,0,1,1,3,3A2.85,2.85,0,0,1,110.56,380.38Zm4.65,0a1.67,1.67,0,1,0-1.66,1.8A1.62,1.62,0,0,0,115.21,380.38Z" fill="#fff"/><path d="M120.17,374.63a2.89,2.89,0,0,1,.88.11v1.12c-.18,0-.32-.05-.52-.05-.4,0-1,.06-1,.89v.85h1.48v1.11h-1.48v4.56h-1.33v-4.56h-1.15v-1.11h1.15v-.83A1.86,1.86,0,0,1,120.17,374.63Zm4,2.07v.85h1.49v1.11H124.2v4.56h-1.32v-4.56h-1.16v-1.11h1.16v-.83a1.85,1.85,0,0,1,1.92-2.09,3,3,0,0,1,.89.11v1.12c-.19,0-.33-.05-.53-.05C124.76,375.81,124.2,375.87,124.2,376.7Z" fill="#fff"/><path d="M131.7,380.82h-4.21a1.39,1.39,0,0,0,1.58,1.39,1.23,1.23,0,0,0,1.26-.65h1.34a2.43,2.43,0,0,1-2.6,1.8,3,3,0,0,1,0-6,2.57,2.57,0,0,1,2.71,2.69C131.73,380.32,131.72,380.5,131.7,380.82Zm-1.27-1a1.27,1.27,0,0,0-1.43-1.36,1.36,1.36,0,0,0-1.51,1.36Z" fill="#fff"/><path d="M133,377.55h1.33v1.09a1.51,1.51,0,0,1,1.5-1.16,2.72,2.72,0,0,1,.53,0v1.22a4.7,4.7,0,0,0-.53,0c-.93,0-1.5.7-1.5,2v2.51H133Z" fill="#fff"/><rect width="160" height="600" fill="none"/></g></g></svg>