<svg xmlns="http://www.w3.org/2000/svg" viewBox="0 0 160 600"><title>txt1a</title><g id="Layer_2" data-name="Layer 2"><g id="Layer_6" data-name="Layer 6"><polyline points="0 0 160 0 160 600 0 600" fill="none"/></g><g id="Layer_6_copy_2" data-name="Layer 6 copy 2"><path d="M21.11,420.3H25a2.6,2.6,0,0,0,2.73,2.91c1.44,0,2.26-.67,2.26-1.85s-.53-1.56-2-2.16l-3-1.18a4.65,4.65,0,0,1-3.4-4.58c0-2.95,2.32-4.92,6-4.92s6.15,2.09,6.15,5.33H29.75a2.15,2.15,0,0,0-2.33-2.43c-1.27,0-2,.65-2,1.66s.65,1.51,2.31,2.18l2.78,1.11a4.71,4.71,0,0,1,3.39,4.72c0,3.15-2.45,5.19-6.17,5.19C23.58,426.28,21.11,424.07,21.11,420.3Z" fill="#fff"/><path d="M47.46,421H38.92c.07,1.52,1.08,2.33,2.71,2.33,1.13,0,1.85-.31,2.16-1h3.6c-.36,2.28-2.69,3.79-5.76,3.79-3.94,0-6.36-2.23-6.36-6.1s2.47-6.09,6.24-6.09c3.6,0,6.05,2.23,6.05,5.49A13,13,0,0,1,47.46,421Zm-3.53-2.28a2.18,2.18,0,0,0-2.45-2.35,2.31,2.31,0,0,0-2.56,2.35Z" fill="#fff"/><path d="M49.67,409h3.67v16.8H49.67Z" fill="#fff"/><path d="M56.36,409H60v16.8H56.36Z" fill="#fff"/><path d="M80.39,414.23v11.21a5.5,5.5,0,0,1-1.66,4.18A6.08,6.08,0,0,1,74.48,431a6.44,6.44,0,0,1-4.27-1.2,4.1,4.1,0,0,1-1.44-3.05h3.7c.07,1,.62,1.56,2,1.56s2.23-.79,2.23-2.59v-1.8A3.87,3.87,0,0,1,73,425.8c-3,0-4.27-2-4.27-4.85v-6.72h3.67v6.17c0,1.49.51,2.49,2,2.49s2.23-1.15,2.23-2.92v-5.74Z" fill="#fff"/><path d="M82.5,420c0-3.52,2.45-6.09,6.43-6.09s6.41,2.57,6.41,6.09-2.45,6.1-6.41,6.1S82.5,423.54,82.5,420Zm9.19,0a2.77,2.77,0,1,0-2.76,3A2.71,2.71,0,0,0,91.69,420Z" fill="#fff"/><path d="M97.33,421.38v-7.15h3.72v6.34c0,1.58.53,2.44,1.92,2.44,1.56,0,2.23-1,2.23-2.56v-6.22h3.65V425.8H105.2v-1.66a3.78,3.78,0,0,1-3.6,2C98.82,426.11,97.33,424.38,97.33,421.38Z" fill="#fff"/><path d="M111.9,414.23h3.67v2.42a3.24,3.24,0,0,1,3.19-2.61,3.72,3.72,0,0,1,1,.09v3.41a7.92,7.92,0,0,0-1.1-.07c-2,0-3.05,1.3-3.05,3.86v4.47H111.9Z" fill="#fff"/><rect width="160" height="600" fill="none"/></g></g></svg>