<svg xmlns="http://www.w3.org/2000/svg" viewBox="0 0 160 600"><title>txt2c</title><g id="Layer_2" data-name="Layer 2"><g id="Layer_4_copy" data-name="Layer 4 copy"><path d="M33.71,472.65v7.15H30v-5.95c0-2-.55-2.84-2-2.84s-2.23,1-2.23,2.74v6.05H22.07V463h3.67v6.91a3.91,3.91,0,0,1,3.74-2C32.29,467.92,33.71,469.5,33.71,472.65Z" fill="#fff"/><path d="M35.72,474c0-3.52,2.45-6.09,6.44-6.09s6.41,2.57,6.41,6.09-2.45,6.1-6.41,6.1S35.72,477.54,35.72,474Zm9.2,0a2.77,2.77,0,1,0-2.76,3A2.72,2.72,0,0,0,44.92,474Z" fill="#fff"/><path d="M50.68,468.23h3.67v1.68a3.47,3.47,0,0,1,3.31-2,3.52,3.52,0,0,1,3.63,2.13A4,4,0,0,1,65,467.92c3.31,0,4.11,2.28,4.11,4.7v7.18h-3.7v-6.51c0-1.6-.6-2.28-1.73-2.28s-1.94.65-1.94,2.84v5.95H58v-6.53c0-1.61-.58-2.26-1.7-2.26s-2,.65-2,2.84v5.95H50.68Z" fill="#fff"/><path d="M83.27,475H74.72c.08,1.52,1.08,2.33,2.72,2.33,1.12,0,1.84-.31,2.16-1h3.6c-.36,2.28-2.69,3.79-5.76,3.79-3.94,0-6.36-2.23-6.36-6.1s2.47-6.09,6.24-6.09c3.6,0,6,2.23,6,5.49A12.92,12.92,0,0,1,83.27,475Zm-3.53-2.28a2.18,2.18,0,0,0-2.45-2.35,2.33,2.33,0,0,0-2.57,2.35Z" fill="#fff"/><rect width="160" height="600" fill="none"/></g></g></svg>