<svg xmlns="http://www.w3.org/2000/svg" viewBox="0 0 160 600"><title>txt2a</title><g id="Layer_2" data-name="Layer 2"><g id="Layer_4_copy_3" data-name="Layer 4 copy 3"><path d="M21.11,420.3H25a2.6,2.6,0,0,0,2.73,2.91c1.44,0,2.26-.67,2.26-1.85s-.53-1.56-2-2.16l-3-1.18a4.65,4.65,0,0,1-3.4-4.58c0-2.95,2.32-4.92,6-4.92s6.15,2.09,6.15,5.33H29.75a2.15,2.15,0,0,0-2.33-2.43c-1.27,0-2,.65-2,1.66s.65,1.51,2.31,2.18l2.78,1.11a4.71,4.71,0,0,1,3.39,4.72c0,3.15-2.45,5.19-6.17,5.19C23.58,426.28,21.11,424.07,21.11,420.3Z" fill="#fff"/><path d="M43.36,425.8l-3.7-5v5H36V409h3.65v10.1l3.79-4.87h4.32l-4.61,5.47,4.68,6.1Z" fill="#fff"/><path d="M49.35,411a2.27,2.27,0,1,1,2.26,2.23A2.21,2.21,0,0,1,49.35,411Zm.44,3.24h3.64V425.8H49.79Z" fill="#fff"/><path d="M69.25,420c0,3.63-2.23,6.1-5.42,6.1a4.2,4.2,0,0,1-3.7-1.94v6.43H56.48V414.23h3.65v1.66a4.32,4.32,0,0,1,3.79-2C67.09,413.92,69.25,416.37,69.25,420Zm-3.74,0a2.77,2.77,0,1,0-2.74,3.05A2.77,2.77,0,0,0,65.51,420Z" fill="#fff"/><rect width="160" height="600" fill="none"/></g></g></svg>