<svg xmlns="http://www.w3.org/2000/svg" viewBox="0 0 160 600"><title>txt2d</title><g id="Layer_2" data-name="Layer 2"><g id="Layer_4" data-name="Layer 4"><path d="M34.84,501c0,3.63-2.24,6.1-5.43,6.1a4.2,4.2,0,0,1-3.69-1.94v6.43H22.07V495.23h3.65v1.66a4.32,4.32,0,0,1,3.79-2C32.68,494.92,34.84,497.37,34.84,501Zm-3.75,0a2.77,2.77,0,1,0-2.73,3.05A2.77,2.77,0,0,0,31.09,501Z" fill="#fff"/><path d="M37,495.23h3.68v2.42A3.23,3.23,0,0,1,43.91,495a3.72,3.72,0,0,1,1,.09v3.41a8,8,0,0,0-1.11-.07c-2,0-3,1.3-3,3.86v4.47H37Z" fill="#fff"/><path d="M58,502H49.5c.07,1.52,1.08,2.33,2.71,2.33,1.13,0,1.85-.31,2.16-1H58c-.36,2.28-2.69,3.79-5.76,3.79-3.93,0-6.36-2.23-6.36-6.1s2.47-6.09,6.24-6.09c3.6,0,6,2.23,6,5.49A11.31,11.31,0,0,1,58,502Zm-3.52-2.28a2.18,2.18,0,0,0-2.45-2.35,2.32,2.32,0,0,0-2.57,2.35Z" fill="#fff"/><path d="M73,501c0,3.63-2.23,6.1-5.42,6.1a4.2,4.2,0,0,1-3.7-1.94v6.43H60.25V495.23H63.9v1.66a4.32,4.32,0,0,1,3.79-2C70.86,494.92,73,497.37,73,501Zm-3.74,0a2.77,2.77,0,1,0-2.74,3.05A2.77,2.77,0,0,0,69.28,501Z" fill="#fff"/><path d="M74.77,504.69A2.38,2.38,0,1,1,77.15,507,2.35,2.35,0,0,1,74.77,504.69Z" fill="#fff"/><rect width="160" height="600" fill="none"/></g></g></svg>