<svg xmlns="http://www.w3.org/2000/svg" viewBox="0 0 160 600"><title>txt3d</title><g id="Layer_2" data-name="Layer 2"><g id="Layer_14" data-name="Layer 14"><path d="M33.71,499.65v7.15H30v-5.95c0-2-.55-2.84-2-2.84s-2.23,1-2.23,2.74v6.05H22.07V490h3.67v6.91a3.91,3.91,0,0,1,3.74-2C32.29,494.92,33.71,496.5,33.71,499.65Z" fill="#fff"/><path d="M35.72,501c0-3.52,2.45-6.09,6.44-6.09s6.41,2.57,6.41,6.09-2.45,6.1-6.41,6.1S35.72,504.54,35.72,501Zm9.2,0a2.77,2.77,0,1,0-2.76,3A2.72,2.72,0,0,0,44.92,501Z" fill="#fff"/><path d="M50.56,502.38v-7.15h3.72v6.34c0,1.58.52,2.44,1.92,2.44,1.56,0,2.23-1,2.23-2.56v-6.22h3.65V506.8H58.43v-1.66a3.78,3.78,0,0,1-3.6,2C52,507.11,50.56,505.38,50.56,502.38Z" fill="#fff"/><path d="M64.28,503.32h3.65c0,.79.77,1.34,1.9,1.34.79,0,1.34-.38,1.34-1.05s-.26-.84-1.25-1.08l-2.42-.6a3.37,3.37,0,0,1-2.9-3.39c0-2.18,2-3.62,4.94-3.62,3.26,0,5.16,1.27,5.16,3.57H71.08c0-.81-.6-1.24-1.59-1.24-.79,0-1.32.38-1.32.93s.34.87,1.27,1.11l2.45.67c1.83.48,2.93,1.58,2.93,3.33,0,2.41-2,3.82-5.06,3.82C66.47,507.11,64.28,505.57,64.28,503.32Z" fill="#fff"/><path d="M88.45,502H79.91c.07,1.52,1.08,2.33,2.71,2.33,1.13,0,1.85-.31,2.16-1h3.6c-.36,2.28-2.69,3.79-5.76,3.79-3.94,0-6.36-2.23-6.36-6.1s2.47-6.09,6.24-6.09c3.6,0,6,2.23,6,5.49A13,13,0,0,1,88.45,502Zm-3.53-2.28a2.17,2.17,0,0,0-2.44-2.35,2.32,2.32,0,0,0-2.57,2.35Z" fill="#fff"/><path d="M89.87,503.32h3.65c0,.79.77,1.34,1.89,1.34.8,0,1.35-.38,1.35-1.05s-.27-.84-1.25-1.08l-2.43-.6a3.38,3.38,0,0,1-2.9-3.39c0-2.18,2-3.62,4.94-3.62,3.27,0,5.17,1.27,5.17,3.57H96.66c0-.81-.6-1.24-1.58-1.24-.79,0-1.32.38-1.32.93s.33.87,1.27,1.11l2.45.67c1.82.48,2.93,1.58,2.93,3.33,0,2.41-2,3.82-5.07,3.82C92.05,507.11,89.87,505.57,89.87,503.32Z" fill="#fff"/><path d="M102.13,504.69a2.38,2.38,0,1,1,2.38,2.35A2.35,2.35,0,0,1,102.13,504.69Z" fill="#fff"/><rect width="160" height="600" fill="none"/></g></g></svg>