<svg xmlns="http://www.w3.org/2000/svg" viewBox="0 0 160 600"><title>txt3c</title><g id="Layer_2" data-name="Layer 2"><g id="Layer_14_copy" data-name="Layer 14 copy"><path d="M21.16,474c0-3.52,2.44-6.09,6.43-6.09S34,470.49,34,474s-2.45,6.1-6.41,6.1S21.16,477.54,21.16,474Zm9.19,0a2.77,2.77,0,1,0-2.76,3A2.71,2.71,0,0,0,30.35,474Z" fill="#fff"/><path d="M48.88,474c0,3.63-2.24,6.1-5.43,6.1a4.2,4.2,0,0,1-3.69-1.94v6.43H36.11V468.23h3.65v1.66a4.32,4.32,0,0,1,3.79-2C46.72,467.92,48.88,470.37,48.88,474Zm-3.75,0a2.77,2.77,0,1,0-2.73,3.05A2.77,2.77,0,0,0,45.13,474Z" fill="#fff"/><path d="M62.44,475H53.89c.07,1.52,1.08,2.33,2.71,2.33,1.13,0,1.85-.31,2.16-1h3.6c-.36,2.28-2.68,3.79-5.76,3.79-3.93,0-6.36-2.23-6.36-6.1s2.48-6.09,6.24-6.09c3.6,0,6.05,2.23,6.05,5.49A12.92,12.92,0,0,1,62.44,475Zm-3.53-2.28a2.18,2.18,0,0,0-2.45-2.35,2.33,2.33,0,0,0-2.57,2.35Z" fill="#fff"/><path d="M64.64,468.23h3.68v1.68a3.91,3.91,0,0,1,3.74-2c2.81,0,4.23,1.58,4.23,4.73v7.15h-3.7v-5.95c0-2-.55-2.84-2-2.84s-2.23,1-2.23,2.74v6.05H64.64Z" fill="#fff"/><rect width="160" height="600" fill="none"/></g></g></svg>