<svg xmlns="http://www.w3.org/2000/svg" viewBox="0 0 160 600"><title>txt3b</title><g id="Layer_2" data-name="Layer 2"><g id="Layer_14_copy_2" data-name="Layer 14 copy 2"><path d="M29.41,449.87v2.93A15,15,0,0,1,27,453c-1.72,0-4.1-.38-4.1-4.25v-4.61H21v-2.9h1.82V437.8h3.67v3.43h2.62v2.9H26.53V448c0,1.71.7,2,1.61,2A9.92,9.92,0,0,0,29.41,449.87Z" fill="#fff"/><path d="M43.17,445.65v7.15h-3.7v-5.95c0-2-.55-2.84-2-2.84s-2.23,1-2.23,2.74v6.05H31.52V436H35.2v6.91a3.91,3.91,0,0,1,3.74-2C41.75,440.92,43.17,442.5,43.17,445.65Z" fill="#fff"/><path d="M57.37,448H48.83c.07,1.52,1.08,2.33,2.71,2.33,1.13,0,1.85-.31,2.16-1h3.6c-.36,2.28-2.69,3.79-5.76,3.79-3.94,0-6.36-2.23-6.36-6.1s2.47-6.09,6.24-6.09c3.6,0,6,2.23,6,5.49A13,13,0,0,1,57.37,448Zm-3.53-2.28a2.17,2.17,0,0,0-2.44-2.35,2.32,2.32,0,0,0-2.57,2.35Z" fill="#fff"/><rect width="160" height="600" fill="none"/></g></g></svg>