<svg xmlns="http://www.w3.org/2000/svg" viewBox="0 0 160 600"><title>txt3c</title><g id="Layer_2" data-name="Layer 2"><g id="Layer_8" data-name="Layer 8"><path d="M33.15,472.65v7.15H29.46v-5.95c0-2-.56-2.84-2-2.84s-2.24,1-2.24,2.74v6.05H21.51V463h3.67v6.91a3.94,3.94,0,0,1,3.75-2Q33.14,467.92,33.15,472.65Z" fill="#fff"/><path d="M35.24,474c0-3.45,2.14-6.09,5.5-6.09a3.94,3.94,0,0,1,3.62,2v-1.66H48V479.8H44.36v-1.63a4.15,4.15,0,0,1-3.67,1.94C37.23,480.11,35.24,477.49,35.24,474Zm9.26,0A2.77,2.77,0,1,0,39,474a2.77,2.77,0,0,0,2.77,3.05C43.57,477.06,44.5,475.69,44.5,474Z" fill="#fff"/><path d="M50.22,476.32h3.64c0,.79.77,1.34,1.9,1.34.79,0,1.34-.38,1.34-1.05s-.26-.84-1.24-1.08l-2.43-.6a3.37,3.37,0,0,1-2.9-3.39c0-2.18,2-3.62,4.94-3.62,3.27,0,5.16,1.27,5.16,3.57H57c0-.81-.6-1.24-1.59-1.24-.79,0-1.32.38-1.32.93s.34.87,1.28,1.11l2.44.67c1.83.48,2.93,1.58,2.93,3.33,0,2.41-2,3.82-5.06,3.82C52.4,480.11,50.22,478.57,50.22,476.32Z" fill="#fff"/><path d="M62.19,476.32h3.65c0,.79.77,1.34,1.9,1.34.79,0,1.34-.38,1.34-1.05s-.26-.84-1.25-1.08l-2.42-.6a3.38,3.38,0,0,1-2.91-3.39c0-2.18,2-3.62,5-3.62,3.26,0,5.16,1.27,5.16,3.57H69c0-.81-.6-1.24-1.58-1.24-.79,0-1.32.38-1.32.93s.34.87,1.27,1.11l2.45.67c1.82.48,2.93,1.58,2.93,3.33,0,2.41-2,3.82-5.07,3.82C64.38,480.11,62.19,478.57,62.19,476.32Z" fill="#fff"/><path d="M75,463h3.67v16.8H75Z" fill="#fff"/><path d="M93,475H84.44c.07,1.52,1.08,2.33,2.71,2.33,1.13,0,1.85-.31,2.16-1h3.6c-.36,2.28-2.69,3.79-5.76,3.79-3.93,0-6.36-2.23-6.36-6.1s2.47-6.09,6.24-6.09c3.6,0,6,2.23,6,5.49A11.31,11.31,0,0,1,93,475Zm-3.52-2.28A2.18,2.18,0,0,0,87,470.39a2.32,2.32,0,0,0-2.57,2.35Z" fill="#fff"/><path d="M94.74,477.69A2.38,2.38,0,1,1,97.11,480,2.35,2.35,0,0,1,94.74,477.69Z" fill="#fff"/><rect width="160" height="600" fill="none"/></g></g></svg>