<svg xmlns="http://www.w3.org/2000/svg" viewBox="0 0 160 600"><title>txt3b</title><g id="Layer_2" data-name="Layer 2"><g id="Layer_8_copy" data-name="Layer 8 copy"><path d="M28.86,449.87v2.93a15.14,15.14,0,0,1-2.45.19c-1.73,0-4.11-.38-4.11-4.25v-4.61H20.48v-2.9H22.3V437.8H26v3.43h2.61v2.9H26V448c0,1.71.69,2,1.6,2A10.19,10.19,0,0,0,28.86,449.87Z" fill="#fff"/><path d="M42.61,445.65v7.15h-3.7v-5.95c0-2-.55-2.84-2-2.84s-2.23,1-2.23,2.74v6.05H31V436h3.67v6.91a3.91,3.91,0,0,1,3.74-2C41.19,440.92,42.61,442.5,42.61,445.65Z" fill="#fff"/><path d="M56.82,448H48.27c.07,1.52,1.08,2.33,2.71,2.33,1.13,0,1.85-.31,2.16-1h3.6c-.36,2.28-2.68,3.79-5.76,3.79-3.93,0-6.36-2.23-6.36-6.1s2.48-6.09,6.24-6.09c3.6,0,6,2.23,6,5.49A12.92,12.92,0,0,1,56.82,448Zm-3.53-2.28a2.18,2.18,0,0,0-2.45-2.35,2.33,2.33,0,0,0-2.57,2.35Z" fill="#fff"/><rect width="160" height="600" fill="none"/></g></g></svg>