<svg xmlns="http://www.w3.org/2000/svg" viewBox="0 0 160 600"><title>txt3a</title><g id="Layer_2" data-name="Layer 2"><g id="Layer_8_copy_2" data-name="Layer 8 copy 2"><path d="M20.55,420.3h3.89a2.6,2.6,0,0,0,2.74,2.91c1.44,0,2.25-.67,2.25-1.85s-.53-1.56-2-2.16l-3-1.18A4.64,4.64,0,0,1,21,413.44c0-2.95,2.33-4.92,6-4.92s6.14,2.09,6.14,5.33H29.19a2.14,2.14,0,0,0-2.33-2.43c-1.27,0-2,.65-2,1.66s.65,1.51,2.3,2.18l2.79,1.11a4.71,4.71,0,0,1,3.38,4.72c0,3.15-2.45,5.19-6.17,5.19C23,426.28,20.55,424.07,20.55,420.3Z" fill="#fff"/><path d="M42.8,425.8l-3.7-5v5H35.46V409H39.1v10.1l3.8-4.87h4.32l-4.61,5.47,4.68,6.1Z" fill="#fff"/><path d="M48.8,411a2.27,2.27,0,1,1,2.25,2.23A2.21,2.21,0,0,1,48.8,411Zm.43,3.24h3.65V425.8H49.23Z" fill="#fff"/><path d="M68.7,420c0,3.63-2.24,6.1-5.43,6.1a4.22,4.22,0,0,1-3.7-1.94v6.43H55.93V414.23h3.64v1.66a4.35,4.35,0,0,1,3.8-2C66.54,413.92,68.7,416.37,68.7,420ZM65,420a2.77,2.77,0,1,0-2.74,3.05A2.77,2.77,0,0,0,65,420Z" fill="#fff"/><rect width="160" height="600" fill="none"/></g></g></svg>