<svg xmlns="http://www.w3.org/2000/svg" viewBox="0 0 160 600"><title>txt5</title><g id="Layer_2" data-name="Layer 2"><g id="Layer_11" data-name="Layer 11"><path d="M30.41,215.4h1.82v14H30.41Z" fill="#fff"/><path d="M35.33,220.18h1.74v1.7a3.27,3.27,0,0,1,3.22-1.94c2.26,0,3.42,1.32,3.42,3.78v5.68H42v-4.92c0-2.06-.68-3-2.32-3s-2.6,1.22-2.6,3.08v4.88H35.33Z" fill="#fff"/><path d="M51.37,227.84v1.54a7.85,7.85,0,0,1-1.56.14c-1.08,0-2.82-.2-2.82-3.18v-4.7H45.33v-1.46H47v-2.92h1.74v2.92h2.32v1.46H48.73V226c0,1.76.6,2,1.48,2A6.67,6.67,0,0,0,51.37,227.84Z" fill="#fff"/><path d="M53.47,220.18h1.74v2.1a2.71,2.71,0,0,1,2.7-2.24,3.42,3.42,0,0,1,.84.08v1.6a4.06,4.06,0,0,0-.86-.06c-1.82,0-2.68,1.66-2.68,3.72v4H53.47Z" fill="#fff"/><path d="M59.65,224.8a4.8,4.8,0,1,1,4.8,4.84A4.61,4.61,0,0,1,59.65,224.8Zm7.86,0a3.08,3.08,0,1,0-3.06,3.28A3,3,0,0,0,67.51,224.8Z" fill="#fff"/><path d="M80.25,215.4v14H78.53v-1.62a3.68,3.68,0,0,1-3.28,1.86c-2.94,0-4.56-2.12-4.56-4.84a4.52,4.52,0,0,1,4.6-4.86,3.54,3.54,0,0,1,3.24,1.88V215.4Zm-1.64,9.4a3.11,3.11,0,1,0-6.2,0,3.1,3.1,0,1,0,6.2,0Z" fill="#fff"/><path d="M83.15,225.86v-5.68h1.74v5.28c0,1.62.6,2.68,2.24,2.68,1.9,0,2.62-1.44,2.62-2.92v-5h1.74v9.22H89.75v-1.68a3.22,3.22,0,0,1-3.1,1.92C84.59,229.64,83.15,228.4,83.15,225.86Z" fill="#fff"/><path d="M93.75,224.8c0-2.86,1.74-4.84,4.58-4.84,2.48,0,4.08,1.36,4.3,3.42h-1.74a2.29,2.29,0,0,0-2.58-1.86c-1.76,0-2.84,1.22-2.84,3.28s1.08,3.28,2.84,3.28a2.3,2.3,0,0,0,2.58-1.8h1.74c-.22,2-1.82,3.36-4.3,3.36C95.49,229.64,93.75,227.66,93.75,224.8Z" fill="#fff"/><path d="M104.31,217.2a1.41,1.41,0,1,1,2.82,0,1.41,1.41,0,0,1-2.82,0Zm.56,3h1.72v9.22h-1.72Z" fill="#fff"/><path d="M109.59,220.18h1.74v1.7a3.27,3.27,0,0,1,3.22-1.94c2.26,0,3.42,1.32,3.42,3.78v5.68h-1.72v-4.92c0-2.06-.68-3-2.32-3s-2.6,1.22-2.6,3.08v4.88h-1.74Z" fill="#fff"/><path d="M129.69,220.18v9a4.64,4.64,0,0,1-1.6,3.88,5.26,5.26,0,0,1-3.18.86,5.7,5.7,0,0,1-3.28-.9,3.1,3.1,0,0,1-1.36-2.44h1.82c.12,1.08,1,1.88,2.8,1.88,2,0,3.08-1,3.08-3.16v-1.5a3.68,3.68,0,0,1-3.28,1.86c-2.82,0-4.56-2.12-4.56-4.84a4.58,4.58,0,0,1,4.6-4.86,3.51,3.51,0,0,1,3.24,1.88v-1.64Zm-1.64,4.62a3.1,3.1,0,1,0-3.12,3.28A3.08,3.08,0,0,0,128.05,224.8Z" fill="#fff"/><rect width="160" height="600" fill="none"/></g></g></svg>