<svg xmlns="http://www.w3.org/2000/svg" viewBox="0 0 160 600"><title>txt6</title><g id="Layer_2" data-name="Layer 2"><g id="Layer_12" data-name="Layer 12"><path d="M78.92,317.8a8.38,8.38,0,0,1-3.5-.7,8,8,0,0,1-2.64-1.89,8.47,8.47,0,0,1-1.65-2.71,8.89,8.89,0,0,1,0-6.37,8.61,8.61,0,0,1,1.65-2.71,7.91,7.91,0,0,1,2.64-1.89,9.13,9.13,0,0,1,7,0,8.2,8.2,0,0,1,2.64,1.89,8.43,8.43,0,0,1,1.65,2.71,8.89,8.89,0,0,1,0,6.37,8.61,8.61,0,0,1-1.65,2.71,8.2,8.2,0,0,1-2.64,1.89A8.4,8.4,0,0,1,78.92,317.8Zm0-1.9a5.73,5.73,0,0,0,2.57-.56,6.11,6.11,0,0,0,2-1.48,6.89,6.89,0,0,0,1.21-2.09,7.13,7.13,0,0,0,.43-2.47,7.27,7.27,0,0,0-.43-2.48,6.88,6.88,0,0,0-1.21-2.11,6.16,6.16,0,0,0-7.1-1.46,6.12,6.12,0,0,0-1.94,1.46,6.54,6.54,0,0,0-1.23,2.11,7.34,7.34,0,0,0,0,4.95,6.45,6.45,0,0,0,1.23,2.09,5.83,5.83,0,0,0,1.94,1.48A5.75,5.75,0,0,0,78.92,315.9Z" fill="#fff"/><path d="M95.5,302.79c-.2-.06-.38-.1-.58-.14a4.06,4.06,0,0,0-.64,0,3.67,3.67,0,0,0-.66,0,1.33,1.33,0,0,0-.6.25,1.4,1.4,0,0,0-.44.6,2.89,2.89,0,0,0-.17,1.13v1.84h3.09v1.74H92.42v9.2H90.35v-9.2H88v-1.74h2.32v-1.63a5.43,5.43,0,0,1,.39-2.29,3.08,3.08,0,0,1,1-1.23,2.74,2.74,0,0,1,1.22-.49,6.91,6.91,0,0,1,1.12-.1,4.34,4.34,0,0,1,.86.08,2.33,2.33,0,0,1,.6.2v1.78Z" fill="#fff"/><path d="M101.83,302.79a5.27,5.27,0,0,0-.57-.14,4.06,4.06,0,0,0-.64,0,3.67,3.67,0,0,0-.66,0,1.33,1.33,0,0,0-.6.25,1.42,1.42,0,0,0-.45.6,3.09,3.09,0,0,0-.17,1.13l0,1.84h3.09v1.74H98.76l0,9.2H96.68l0-9.2H94.38v-1.74H96.7l0-1.63a5.26,5.26,0,0,1,.4-2.29,3.08,3.08,0,0,1,1-1.23,2.71,2.71,0,0,1,1.2-.49,6.7,6.7,0,0,1,1.11-.1,4.33,4.33,0,0,1,.88.08,2.21,2.21,0,0,1,.6.2Z" fill="#fff"/><path d="M104.34,312.6a4.35,4.35,0,0,0,.23,1.32,3.72,3.72,0,0,0,.6,1.09,3,3,0,0,0,1,.76,4,4,0,0,0,1.55.27,2.91,2.91,0,0,0,1.88-.52,3,3,0,0,0,.91-1.22h2.13a4,4,0,0,1-.53,1.33,4.25,4.25,0,0,1-1,1.1,4.67,4.67,0,0,1-1.47.77,5.7,5.7,0,0,1-1.9.29,6,6,0,0,1-2.42-.46,4.76,4.76,0,0,1-1.72-1.24,4.93,4.93,0,0,1-1-1.82,7.5,7.5,0,0,1-.34-2.24,6.85,6.85,0,0,1,.37-2.3,5.46,5.46,0,0,1,1-1.84,4.75,4.75,0,0,1,1.7-1.21,5.77,5.77,0,0,1,2.31-.43,5.26,5.26,0,0,1,2,.38,4.82,4.82,0,0,1,1.62,1.05,5.15,5.15,0,0,1,1.08,1.59,4.9,4.9,0,0,1,.39,2c0,.16,0,.35,0,.59a6.83,6.83,0,0,1-.09.79h-8.32Zm3.3-4.73a3.3,3.3,0,0,0-2.32.81,3,3,0,0,0-.94,2.3h6.37a3.05,3.05,0,0,0-.88-2.29A3.23,3.23,0,0,0,107.64,307.87Z" fill="#fff"/><path d="M121.25,308.28c-.22,0-.39-.07-.53-.09l-.49,0a3.14,3.14,0,0,0-2.67,1.16,5,5,0,0,0-.89,3.09v5h-2V306.55h2v2a3.59,3.59,0,0,1,1.42-1.65,4.05,4.05,0,0,1,2.14-.62,2.53,2.53,0,0,1,1,.17v1.87Z" fill="#fff"/><path d="M127.16,311.41c.41.13.82.26,1.22.42a4.12,4.12,0,0,1,1.06.56,2.53,2.53,0,0,1,.74.85,2.72,2.72,0,0,1,.28,1.28,3,3,0,0,1-.33,1.44,2.82,2.82,0,0,1-.91,1,4,4,0,0,1-1.37.62,6.62,6.62,0,0,1-1.71.21,5.92,5.92,0,0,1-1.75-.25,4,4,0,0,1-1.44-.75,3.44,3.44,0,0,1-1-1.25,4,4,0,0,1-.37-1.74h2.06a2,2,0,0,0,.74,1.78,3.63,3.63,0,0,0,3.47.15,1.34,1.34,0,0,0,.6-1.2,1.08,1.08,0,0,0-.25-.75,2.11,2.11,0,0,0-.69-.49,6.91,6.91,0,0,0-1.11-.41c-.43-.11-.92-.27-1.47-.47s-.81-.26-1.18-.41a3.5,3.5,0,0,1-.94-.56,2.32,2.32,0,0,1-.62-.83,2.75,2.75,0,0,1-.24-1.23,2.83,2.83,0,0,1,.32-1.37,2.67,2.67,0,0,1,.87-1,3.88,3.88,0,0,1,1.3-.6,5.6,5.6,0,0,1,1.61-.21,5.27,5.27,0,0,1,1.67.26,3.86,3.86,0,0,1,1.34.77,3.46,3.46,0,0,1,.9,1.17,3.4,3.4,0,0,1,.33,1.5h-2a1.9,1.9,0,0,0-.57-1.49,2.38,2.38,0,0,0-1.66-.52,2.47,2.47,0,0,0-1.44.39,1.27,1.27,0,0,0-.59,1.14,1,1,0,0,0,.21.68,1.64,1.64,0,0,0,.61.45,7.13,7.13,0,0,0,1,.38Z" fill="#fff"/><path d="M114.87,285.41h3.49l1,3.3c.34,1.1.63,2.13.9,3.17h0c.29-1,.59-2.11.91-3.17l1.06-3.3h2.59l1,3.3c.35,1.14.61,2.11.9,3.17h0c.28-1,.58-2.06.9-3.17l1-3.3H132l-3.51,10.92h-3.18l-.87-2.74c-.34-1.07-.65-2.17-.93-3.18h0q-.4,1.51-.93,3.15l-.89,2.77h-3.25Z" fill="#fff"/><rect x="91.4" y="279.65" width="3.53" height="16.68" fill="#fff"/><rect x="97.54" y="279.65" width="3.53" height="16.68" fill="#fff"/><path d="M102.81,290.92a5.94,5.94,0,1,1,6,5.78,5.8,5.8,0,0,1-6-5.78m8.48,0a2.56,2.56,0,1,0-2.53,2.72,2.58,2.58,0,0,0,2.53-2.72" fill="#fff"/><polygon points="71 281.2 71 284.41 77.23 284.41 77.25 284.46 70.8 295.41 70.8 296.33 82.95 296.33 82.95 293.12 76.2 293.12 76.19 293.08 82.63 282.13 82.61 282.13 82.61 281.2 71 281.2" fill="#fff"/><path d="M87,280a2,2,0,1,1-2,2,2,2,0,0,1,2-2m-1.76,5.46h3.52v10.92H85.2Z" fill="#fff"/><path d="M135.14,284.33a.45.45,0,0,0-.46-.46h-.48v1.32h.22v-.39h.21l.25.39h.24l-.26-.43A.44.44,0,0,0,135.14,284.33Zm-.49.27h-.24v-.53h.24a.25.25,0,0,1,.25.27A.23.23,0,0,1,134.65,284.6Z" fill="#fff"/><path d="M134.6,283.4a1.15,1.15,0,1,0,1.15,1.15A1.15,1.15,0,0,0,134.6,283.4Zm0,2.05a.9.9,0,0,1-.91-.91.92.92,0,0,1,.91-.93.93.93,0,0,1,.93.93A.92.92,0,0,1,134.6,285.45Z" fill="#fff"/><rect width="160" height="600" fill="none"/></g></g></svg>