<svg xmlns="http://www.w3.org/2000/svg" viewBox="0 0 300 250"><defs><style>.cls-1{fill:#fff;}.cls-2{fill:none;}</style></defs><title>txt5</title><g id="Layer_2" data-name="Layer 2"><g id="Layer_5_copy" data-name="Layer 5 copy"><path class="cls-1" d="M83.38,38.22h2.55v19.6H83.38Z"/><path class="cls-1" d="M90.27,44.91h2.44v2.38a4.57,4.57,0,0,1,4.5-2.72c3.17,0,4.79,1.85,4.79,5.3v8H99.59V50.93c0-2.88-1-4.26-3.24-4.26S92.71,48.38,92.71,51v6.83H90.27Z"/><path class="cls-1" d="M112.73,55.63v2.16a11.2,11.2,0,0,1-2.19.2c-1.51,0-3.94-.28-3.94-4.46V47h-2.33v-2h2.33V40.82H109v4.09h3.25v2H109v6c0,2.47.84,2.8,2.07,2.8A8.87,8.87,0,0,0,112.73,55.63Z"/><path class="cls-1" d="M115.67,44.91h2.43v2.94a3.8,3.8,0,0,1,3.78-3.14,4.51,4.51,0,0,1,1.18.12v2.24a5.35,5.35,0,0,0-1.21-.09c-2.54,0-3.75,2.33-3.75,5.21v5.63h-2.43Z"/><path class="cls-1" d="M124.32,51.38a6.72,6.72,0,1,1,13.44,0,6.72,6.72,0,1,1-13.44,0Zm11,0c0-2.61-1.57-4.62-4.28-4.62s-4.31,2-4.31,4.62S128.32,56,131,56,135.32,54,135.32,51.38Z"/><path class="cls-1" d="M153.16,38.22v19.6h-2.41V55.55a5.13,5.13,0,0,1-4.59,2.6c-4.12,0-6.39-3-6.39-6.77s2.44-6.81,6.44-6.81a5,5,0,0,1,4.54,2.64v-9Zm-2.3,13.16c0-2.49-1.54-4.62-4.37-4.62-2.66,0-4.31,2-4.31,4.62S143.83,56,146.49,56A4.26,4.26,0,0,0,150.86,51.38Z"/><path class="cls-1" d="M157.22,52.86v-8h2.43V52.3c0,2.27.84,3.75,3.14,3.75,2.66,0,3.67-2,3.67-4.08V44.91h2.43V57.82h-2.43V55.47a4.51,4.51,0,0,1-4.34,2.68C159.23,58.15,157.22,56.42,157.22,52.86Z"/><path class="cls-1" d="M172.06,51.38c0-4,2.43-6.78,6.41-6.78,3.47,0,5.71,1.91,6,4.79h-2.44c-.33-1.71-1.56-2.6-3.61-2.6-2.46,0-4,1.7-4,4.59S176,56,178.44,56c2.05,0,3.28-.9,3.61-2.52h2.44c-.31,2.83-2.55,4.7-6,4.7C174.49,58.15,172.06,55.38,172.06,51.38Z"/><path class="cls-1" d="M186.84,40.74a2,2,0,1,1,3.95,0,2,2,0,0,1-3.95,0Zm.79,4.17H190V57.82h-2.4Z"/><path class="cls-1" d="M194.23,44.91h2.44v2.38a4.59,4.59,0,0,1,4.51-2.72c3.16,0,4.79,1.85,4.79,5.3v8h-2.41V50.93c0-2.88-.95-4.26-3.25-4.26s-3.64,1.71-3.64,4.32v6.83h-2.44Z"/><path class="cls-1" d="M222.37,44.91V57.48c0,2.47-.78,4.31-2.24,5.43a7.29,7.29,0,0,1-4.45,1.21,8,8,0,0,1-4.59-1.26,4.34,4.34,0,0,1-1.9-3.42h2.54c.17,1.51,1.46,2.63,3.92,2.63,2.8,0,4.32-1.34,4.32-4.42v-2.1a5.18,5.18,0,0,1-4.6,2.6c-3.94,0-6.38-3-6.38-6.77s2.6-6.81,6.44-6.81A4.92,4.92,0,0,1,220,47.21v-2.3Zm-2.29,6.47a4.35,4.35,0,1,0-8.68,0,4.35,4.35,0,1,0,8.68,0Z"/><rect class="cls-2" width="300" height="250"/></g></g></svg>