<svg xmlns="http://www.w3.org/2000/svg" viewBox="0 0 300 250"><title>cta</title><g id="Layer_2" data-name="Layer 2"><g id="cta"><path d="M196.77,182H70c-2.22,0-4,1.09-4,2.43v29.14c0,1.35,1.8,2.43,4,2.43H230c2.22,0,4-1.08,4-2.43V184.41c0-1.34-1.8-2.43-4-2.43Z" fill="none" stroke="#fff" stroke-miterlimit="10" stroke-width="1.21"/><path d="M90.52,200.83,92.45,204H90.62l-1.8-2.94H87.24V204H85.63v-9.8h3.61a3.46,3.46,0,0,1,1.28,6.63Zm-3.28-1.21h1.91a2,2,0,0,0,0-4H87.24Z" fill="#fff"/><path d="M99.8,201.24H95a1.61,1.61,0,0,0,1.83,1.6,1.43,1.43,0,0,0,1.45-.74h1.54a2.8,2.8,0,0,1-3,2.07,3.44,3.44,0,0,1-.06-6.87,3,3,0,0,1,3.12,3.1C99.84,200.67,99.83,200.88,99.8,201.24Zm-1.46-1.16a1.47,1.47,0,0,0-1.65-1.57A1.57,1.57,0,0,0,95,200.08Z" fill="#fff"/><path d="M107.64,197.47v9.47h-1.51v-3.82a2.55,2.55,0,0,1-2.1,1,3.12,3.12,0,0,1-3.21-3.43,3.2,3.2,0,0,1,3.25-3.44,2.39,2.39,0,0,1,2.06,1.06v-.89Zm-1.46,3.27a1.92,1.92,0,1,0-1.93,2.07A1.89,1.89,0,0,0,106.18,200.74Z" fill="#fff"/><path d="M109.53,201.58v-4.11h1.52v3.73c0,1.05.34,1.67,1.34,1.67,1.16,0,1.58-.77,1.58-1.71v-3.69h1.53V204H114v-.91a2.16,2.16,0,0,1-2,1.08A2.29,2.29,0,0,1,109.53,201.58Z" fill="#fff"/><path d="M123.32,201.24h-4.85a1.61,1.61,0,0,0,1.83,1.6,1.43,1.43,0,0,0,1.45-.74h1.54a2.8,2.8,0,0,1-3,2.07,3.44,3.44,0,0,1-.06-6.87,3,3,0,0,1,3.12,3.1C123.36,200.67,123.35,200.88,123.32,201.24Zm-1.46-1.16a1.47,1.47,0,0,0-1.65-1.57,1.57,1.57,0,0,0-1.74,1.57Z" fill="#fff"/><path d="M124.34,202h1.53c0,.56.54.95,1.33.95.57,0,.94-.31.94-.77s-.16-.59-.86-.77l-1.3-.35a1.81,1.81,0,0,1-1.43-1.84c0-1.1,1-1.92,2.51-1.92s2.57.78,2.57,2h-1.49c0-.55-.42-.87-1.14-.87-.55,0-.94.28-.94.67s.21.59.82.76l1.3.37a1.91,1.91,0,0,1,1.51,1.87c0,1.27-1,2-2.58,2S124.34,203.24,124.34,202Z" fill="#fff"/><path d="M134.81,202.66V204a7.57,7.57,0,0,1-1.13.08c-.74,0-2.12-.09-2.12-2.29v-3h-1.1v-1.28h1.1v-2h1.53v2h1.5v1.28h-1.5v2.69c0,1.13.35,1.27.95,1.27A7.64,7.64,0,0,0,134.81,202.66Z" fill="#fff"/><path d="M139.22,200.74a3.2,3.2,0,0,1,3.25-3.44,2.39,2.39,0,0,1,2.06,1.06v-.89H146V204h-1.51v-.88a2.55,2.55,0,0,1-2.1,1A3.12,3.12,0,0,1,139.22,200.74Zm5.37,0a1.93,1.93,0,1,0-1.94,2.07A1.89,1.89,0,0,0,144.59,200.74Z" fill="#fff"/><path d="M151,200.74a3.14,3.14,0,0,1,3.25-3.44,2.78,2.78,0,0,1,3.09,2.5h-1.52a1.4,1.4,0,0,0-1.57-1.14c-1.08,0-1.72.75-1.72,2.08s.64,2.07,1.72,2.07a1.39,1.39,0,0,0,1.57-1.06h1.52c-.14,1.45-1.27,2.42-3.09,2.42A3.13,3.13,0,0,1,151,200.74Z" fill="#fff"/><path d="M158.33,200.74a3.2,3.2,0,0,1,3.25-3.44,2.39,2.39,0,0,1,2.06,1.06v-.89h1.51V204h-1.51v-.88a2.55,2.55,0,0,1-2.1,1A3.12,3.12,0,0,1,158.33,200.74Zm5.37,0a1.93,1.93,0,1,0-1.94,2.07A1.89,1.89,0,0,0,163.7,200.74Z" fill="#fff"/><path d="M166.62,202h1.53c0,.56.54.95,1.33.95.57,0,.94-.31.94-.77s-.16-.59-.86-.77l-1.3-.35a1.81,1.81,0,0,1-1.43-1.84c0-1.1,1-1.92,2.51-1.92s2.57.78,2.57,2h-1.49c0-.55-.42-.87-1.14-.87-.55,0-.94.28-.94.67s.21.59.81.76l1.31.37a1.91,1.91,0,0,1,1.51,1.87c0,1.27-1,2-2.58,2S166.62,203.24,166.62,202Z" fill="#fff"/><path d="M179.54,199.9V204H178v-3.4c0-1.39-.37-2-1.43-2s-1.56.66-1.56,1.8V204h-1.52v-9.8H175v4.18a2.34,2.34,0,0,1,2.13-1.08C178.73,197.3,179.54,198.19,179.54,199.9Z" fill="#fff"/><path d="M184.44,200.74a3.45,3.45,0,1,1,3.45,3.43A3.28,3.28,0,0,1,184.44,200.74Zm5.37,0a1.93,1.93,0,1,0-1.92,2.07A1.88,1.88,0,0,0,189.81,200.74Z" fill="#fff"/><path d="M195.5,194.11a3.3,3.3,0,0,1,1,.13v1.29a5.54,5.54,0,0,0-.6-.06c-.46,0-1.1.07-1.1,1v1h1.7v1.28h-1.7V204h-1.53v-5.25H192v-1.28h1.33v-.95A2.14,2.14,0,0,1,195.5,194.11Zm4.65,2.38v1h1.71v1.28h-1.71V204h-1.52v-5.25H197.3v-1.28h1.33v-.95a2.14,2.14,0,0,1,2.21-2.41,3.3,3.3,0,0,1,1,.13v1.29a5.8,5.8,0,0,0-.6-.06C200.8,195.47,200.15,195.54,200.15,196.49Z" fill="#fff"/><path d="M208.78,201.24h-4.85a1.59,1.59,0,0,0,1.82,1.6,1.43,1.43,0,0,0,1.46-.74h1.54a2.81,2.81,0,0,1-3,2.07,3.44,3.44,0,0,1-.06-6.87,3,3,0,0,1,3.13,3.1C208.82,200.67,208.8,200.88,208.78,201.24Zm-1.46-1.16a1.47,1.47,0,0,0-1.65-1.57,1.56,1.56,0,0,0-1.74,1.57Z" fill="#fff"/><path d="M210.28,197.47h1.53v1.26a1.76,1.76,0,0,1,1.74-1.34,2.64,2.64,0,0,1,.6.05v1.41a4,4,0,0,0-.6,0c-1.08,0-1.74.81-1.74,2.3V204h-1.53Z" fill="#fff"/><rect width="300" height="250" fill="none"/></g></g></svg>