<svg xmlns="http://www.w3.org/2000/svg" viewBox="0 0 300 250"><title>footer</title><g id="Layer_2" data-name="Layer 2"><g id="_300x250" data-name="300x250"><path d="M300,105c-35.39.44-70.81,7.27-111.46,18.2-42.24,11.36-98,17.69-119.22,18.85h-.17L300,170Z" fill="#ffd237"/><path d="M300,146c-99.67-27.13-188.17-40-300-35V250H300Z" fill="#006aff"/><polygon points="300 181 275 181 300 237.11 300 181" fill="#0d4599"/><polygon points="300 250 300 202.73 275.1 181 251 208.1 251 250 300 250" fill="#e0f2ff"/><path d="M157,226.64a11,11,0,0,1-4.6-.93,10.52,10.52,0,0,1-3.45-2.48,11,11,0,0,1-2.18-3.56,11.86,11.86,0,0,1,0-8.34,10.78,10.78,0,0,1,2.18-3.56,10.28,10.28,0,0,1,3.46-2.48,11.82,11.82,0,0,1,9.19,0,10.23,10.23,0,0,1,3.45,2.48,10.78,10.78,0,0,1,2.18,3.56,11.86,11.86,0,0,1,0,8.34,11,11,0,0,1-2.18,3.56,10.37,10.37,0,0,1-3.45,2.48A11,11,0,0,1,157,226.64Zm0-2.5a7.53,7.53,0,0,0,3.36-.73,7.8,7.8,0,0,0,2.55-1.93,8.84,8.84,0,0,0,1.59-2.76,9.3,9.3,0,0,0,.57-3.22,9.41,9.41,0,0,0-.57-3.24,8.41,8.41,0,0,0-1.59-2.77,7.59,7.59,0,0,0-2.54-1.92,8.27,8.27,0,0,0-6.75,0,7.83,7.83,0,0,0-2.54,1.92,8.64,8.64,0,0,0-1.61,2.77,9.62,9.62,0,0,0,0,6.47,8.65,8.65,0,0,0,1.61,2.75,8,8,0,0,0,2.54,1.93,7.56,7.56,0,0,0,3.38.73Z" fill="#fff"/><path d="M179.51,205.56a5.85,5.85,0,0,0-.8-.2,5.49,5.49,0,0,0-.91-.07,7.28,7.28,0,0,0-.93.07,1.88,1.88,0,0,0-.85.35,2,2,0,0,0-.62.85,4.48,4.48,0,0,0-.23,1.6v2.59h4.34v2.44h-4.34v12.92h-2.9V213.19H169v-2.44h3.26v-2.29a7.74,7.74,0,0,1,.55-3.22,4.36,4.36,0,0,1,1.35-1.71,3.85,3.85,0,0,1,1.7-.7,10.41,10.41,0,0,1,1.57-.14,6.23,6.23,0,0,1,1.22.12,4.45,4.45,0,0,1,.85.28Z" fill="#fff"/><path d="M188.41,205.56a5.17,5.17,0,0,0-1.7-.27,7.43,7.43,0,0,0-.94.07,1.84,1.84,0,0,0-.84.35,1.87,1.87,0,0,0-.62.85,4.45,4.45,0,0,0-.24,1.6l0,2.59h4.33v2.44h-4.33l0,12.92h-2.9V213.19h-3.26v-2.44h3.26v-2.29a7.74,7.74,0,0,1,.55-3.22,4.36,4.36,0,0,1,1.35-1.71,3.76,3.76,0,0,1,1.69-.7,10,10,0,0,1,1.55-.14,5.82,5.82,0,0,1,1.25.12,4.23,4.23,0,0,1,.85.28Z" fill="#fff"/><path d="M191.94,219.32a6.21,6.21,0,0,0,.32,1.86,4.52,4.52,0,0,0,.85,1.53,3.79,3.79,0,0,0,1.45,1,5.36,5.36,0,0,0,2.17.39,4.09,4.09,0,0,0,2.64-.73,4,4,0,0,0,1.28-1.72h3a5.75,5.75,0,0,1-2.17,3.44,6.9,6.9,0,0,1-2.08,1.09,8,8,0,0,1-2.66.41,8.22,8.22,0,0,1-3.4-.65,6.72,6.72,0,0,1-2.41-1.73,7.08,7.08,0,0,1-1.43-2.57,10.53,10.53,0,0,1,0-6.38,7.52,7.52,0,0,1,1.48-2.59,6.84,6.84,0,0,1,2.38-1.7,8.09,8.09,0,0,1,3.25-.61,7.31,7.31,0,0,1,2.81.53,6.88,6.88,0,0,1,4.34,6.45c0,.22,0,.5,0,.81a10.83,10.83,0,0,1-.12,1.13Zm4.62-6.63a4.66,4.66,0,0,0-3.26,1.14,4.36,4.36,0,0,0-1.33,3.25h8.95a4.2,4.2,0,0,0-1.24-3.22,4.37,4.37,0,0,0-3.11-1.17Z" fill="#fff"/><path d="M215.69,213.28a6.61,6.61,0,0,0-.75-.13,5.07,5.07,0,0,0-.68,0,4.45,4.45,0,0,0-3.76,1.63,7,7,0,0,0-1.24,4.34v7h-2.89V210.83h2.89v2.75a4.91,4.91,0,0,1,2-2.31,5.61,5.61,0,0,1,3-.88,3.89,3.89,0,0,1,1.43.23Z" fill="#fff"/><path d="M224,217.66q.88.27,1.71.57a5.85,5.85,0,0,1,1.48.79,3.5,3.5,0,0,1,1,1.19,3.72,3.72,0,0,1,.39,1.8,4.3,4.3,0,0,1-.45,2,4.16,4.16,0,0,1-1.28,1.45,6,6,0,0,1-1.92.87,9.73,9.73,0,0,1-2.4.29,8.78,8.78,0,0,1-2.45-.34,5.93,5.93,0,0,1-2-1,5.36,5.36,0,0,1-1.39-1.75,5.45,5.45,0,0,1-.53-2.45h2.89a2.85,2.85,0,0,0,1,2.5,4.46,4.46,0,0,0,2.6.73,4.24,4.24,0,0,0,2.27-.53,1.85,1.85,0,0,0,.83-1.68,1.52,1.52,0,0,0-.34-1,3.15,3.15,0,0,0-1-.7,9.56,9.56,0,0,0-1.55-.56q-.92-.25-2.07-.66c-.59-.18-1.14-.38-1.65-.58a4.8,4.8,0,0,1-1.33-.78,3.34,3.34,0,0,1-.88-1.16,4,4,0,0,1-.33-1.73,3.87,3.87,0,0,1,1.67-3.32,5.71,5.71,0,0,1,1.84-.85,8.06,8.06,0,0,1,2.24-.29,7.22,7.22,0,0,1,2.35.37,5.57,5.57,0,0,1,1.89,1.08,5,5,0,0,1,1.26,1.65,4.81,4.81,0,0,1,.46,2.11h-2.86a2.72,2.72,0,0,0-.8-2.1,3.39,3.39,0,0,0-2.33-.73,3.53,3.53,0,0,0-2,.55,1.78,1.78,0,0,0-.82,1.6,1.47,1.47,0,0,0,.29.95,2.36,2.36,0,0,0,.87.65,11,11,0,0,0,1.39.52Z" fill="#fff"/><path d="M117.1,210.8H122l1.42,4.63c.47,1.54.89,3,1.27,4.45h.06c.41-1.44.82-3,1.29-4.45l1.49-4.63h3.62l1.46,4.63c.49,1.59.86,3,1.26,4.45h.07c.38-1.47.8-2.89,1.27-4.44l1.42-4.64h4.55l-4.93,15.33h-4.48l-1.21-3.85c-.47-1.51-.92-3.05-1.3-4.47h-.06c-.39,1.42-.83,2.9-1.33,4.44l-1.24,3.88h-4.56Z" fill="#fff"/><rect x="84.13" y="202.7" width="4.96" height="23.43" fill="#fff"/><rect x="92.76" y="202.7" width="4.96" height="23.43" fill="#fff"/><path d="M100.17,218.51a8.33,8.33,0,1,1,8.35,8.13,8.13,8.13,0,0,1-8.35-8.13m11.91,0a3.59,3.59,0,1,0-3.56,3.84,3.62,3.62,0,0,0,3.56-3.84" fill="#fff"/><polygon points="55.47 204.87 55.47 209.38 64.22 209.38 64.26 209.44 55.2 224.83 55.2 226.13 72.26 226.13 72.26 221.62 62.78 221.62 62.75 221.56 71.8 206.17 71.8 206.17 71.8 204.87 55.47 204.87" fill="#fff"/><path d="M77.9,203.12a2.78,2.78,0,1,1-2.82,2.78,2.81,2.81,0,0,1,2.82-2.78m-2.48,7.68h5v15.33h-5Z" fill="#fff"/><path d="M39.82,207.89a.19.19,0,0,1,.24.08c.4.42,1.71,1.89,2.07,2.29a.13.13,0,0,1,0,.19h0a44.32,44.32,0,0,0-6.61,7s0,0,0,0a78.67,78.67,0,0,1,11.92-4.06v-3.17l-11.27-8.91-11.28,8.91v4.4A79.4,79.4,0,0,1,39.82,207.89Z" fill="#fff"/><path d="M31.28,223.55a.17.17,0,0,1-.24,0l-2.21-2.42c-.06-.06-.06-.1,0-.22A40,40,0,0,1,35.58,213s0-.06,0,0a92.56,92.56,0,0,0-10.67,5.2v8H47.44V217.5A83.23,83.23,0,0,0,31.28,223.55Z" fill="#fff"/><path d="M144.34,208.55a.71.71,0,0,0-.73-.75h-.79V210h.35v-.65h.35l.39.65h.4l-.42-.7A.72.72,0,0,0,144.34,208.55Zm-.75.44h-.42v-.88h.42a.44.44,0,0,1,0,.88Z" fill="#fff"/><path d="M143.5,207.05a1.86,1.86,0,1,0,1.86,1.86h0A1.86,1.86,0,0,0,143.5,207.05Zm0,3.36a1.5,1.5,0,1,1,1.5-1.5h0A1.5,1.5,0,0,1,143.5,210.41Z" fill="#fff"/><rect x="269" y="227" width="16" height="23" fill="#006aff"/><rect width="300" height="250" fill="none"/></g></g></svg>