<svg xmlns="http://www.w3.org/2000/svg" viewBox="0 0 300 250"><title>txt1b</title><g id="Layer_2" data-name="Layer 2"><g id="txt1b"><path d="M28.25,173.55v2.93a15.14,15.14,0,0,1-2.45.19c-1.73,0-4.11-.39-4.11-4.25v-4.61H19.87v-2.9h1.82v-3.44h3.68v3.44H28v2.9H25.37v3.84c0,1.71.69,2,1.6,2A10.19,10.19,0,0,0,28.25,173.55Z" fill="#fff"/><path d="M29.45,170.69c0-3.53,2.44-6.1,6.43-6.1s6.41,2.57,6.41,6.1-2.45,6.1-6.41,6.1S29.45,174.22,29.45,170.69Zm9.19,0a2.77,2.77,0,1,0-2.76,3A2.71,2.71,0,0,0,38.64,170.69Z" fill="#fff"/><path d="M57,162.94H50.06v-3.27H63.17l-7.9,13.54h7.46v3.27H49Z" fill="#fff"/><path d="M64.68,161.67a2.21,2.21,0,0,1,2.25-2.26,2.25,2.25,0,1,1,0,4.49A2.2,2.2,0,0,1,64.68,161.67Zm.43,3.24h3.65v11.57H65.11Z" fill="#fff"/><path d="M71.8,159.67h3.68v16.81H71.8Z" fill="#fff"/><path d="M78.5,159.67h3.67v16.81H78.5Z" fill="#fff"/><path d="M84.28,170.69c0-3.53,2.45-6.1,6.44-6.1s6.4,2.57,6.4,6.1-2.44,6.1-6.4,6.1S84.28,174.22,84.28,170.69Zm9.2,0a2.77,2.77,0,1,0-2.76,3A2.72,2.72,0,0,0,93.48,170.69Z" fill="#fff"/><path d="M97.32,164.91h3.84l2.08,7,2-7h3.58l2,7,2.09-7h3.81l-4.15,11.57h-3.29l-2.23-7-2.21,7h-3.29Z" fill="#fff"/><path d="M116.92,174.36a2.38,2.38,0,1,1,2.38,2.36A2.35,2.35,0,0,1,116.92,174.36Z" fill="#fff"/><rect width="300" height="250" fill="none"/></g></g></svg>