<svg xmlns="http://www.w3.org/2000/svg" viewBox="0 0 300 250"><title>txt1a</title><g id="Layer_2" data-name="Layer 2"><g id="txt1a"><path d="M19.94,146h3.89a2.59,2.59,0,0,0,2.74,2.9c1.44,0,2.25-.67,2.25-1.84s-.53-1.57-2-2.16l-3-1.18a4.64,4.64,0,0,1-3.41-4.58c0-3,2.33-4.93,6-4.93s6.14,2.09,6.14,5.33H28.58a2.14,2.14,0,0,0-2.33-2.42c-1.27,0-2,.65-2,1.65s.65,1.52,2.3,2.19l2.79,1.1a4.73,4.73,0,0,1,3.38,4.73c0,3.15-2.45,5.19-6.17,5.19C22.41,152,19.94,149.75,19.94,146Z" fill="#fff"/><path d="M46.29,146.7H37.75c.07,1.51,1.08,2.33,2.71,2.33,1.13,0,1.85-.32,2.16-1h3.6c-.36,2.28-2.69,3.79-5.76,3.79-3.93,0-6.36-2.23-6.36-6.1s2.47-6.1,6.24-6.1c3.6,0,6,2.24,6,5.5A11.31,11.31,0,0,1,46.29,146.7Zm-3.52-2.28a2.18,2.18,0,0,0-2.45-2.35,2.31,2.31,0,0,0-2.57,2.35Z" fill="#fff"/><path d="M48.5,134.67h3.67v16.81H48.5Z" fill="#fff"/><path d="M55.2,134.67h3.67v16.81H55.2Z" fill="#fff"/><path d="M79.22,139.91v11.21a5.44,5.44,0,0,1-1.66,4.17,6,6,0,0,1-4.24,1.35,6.47,6.47,0,0,1-4.28-1.2,4.13,4.13,0,0,1-1.44-3.05h3.7c.07,1,.62,1.56,2,1.56s2.23-.79,2.23-2.59v-1.8a3.88,3.88,0,0,1-3.67,1.92c-3,0-4.28-2-4.28-4.85v-6.72h3.68v6.17c0,1.48.5,2.49,2,2.49s2.23-1.15,2.23-2.93v-5.73Z" fill="#fff"/><path d="M81.33,145.69c0-3.53,2.45-6.1,6.43-6.1s6.41,2.57,6.41,6.1-2.44,6.1-6.41,6.1S81.33,149.22,81.33,145.69Zm9.2,0a2.77,2.77,0,1,0-2.77,3A2.72,2.72,0,0,0,90.53,145.69Z" fill="#fff"/><path d="M96.16,147.06v-7.15h3.72v6.33c0,1.59.53,2.45,1.92,2.45,1.57,0,2.24-1,2.24-2.57v-6.21h3.65v11.57H104v-1.66a3.8,3.8,0,0,1-3.6,2C97.65,151.79,96.16,150.06,96.16,147.06Z" fill="#fff"/><path d="M110.73,139.91h3.67v2.42a3.25,3.25,0,0,1,3.2-2.62,3.67,3.67,0,0,1,1,.1v3.41a8.07,8.07,0,0,0-1.11-.07c-2,0-3,1.29-3,3.86v4.47h-3.67Z" fill="#fff"/><path d="M138,144.32v7.16h-3.7v-6c0-1.94-.55-2.83-2-2.83s-2.23,1-2.23,2.74v6h-3.67V134.67H130v6.92a3.92,3.92,0,0,1,3.74-2C136.58,139.59,138,141.18,138,144.32Z" fill="#fff"/><path d="M140,145.69c0-3.53,2.45-6.1,6.43-6.1s6.41,2.57,6.41,6.1-2.45,6.1-6.41,6.1S140,149.22,140,145.69Zm9.19,0a2.77,2.77,0,1,0-2.76,3A2.71,2.71,0,0,0,149.2,145.69Z" fill="#fff"/><path d="M155,139.91h3.68v1.68a3.46,3.46,0,0,1,3.31-2,3.5,3.5,0,0,1,3.62,2.14,4,4,0,0,1,3.7-2.14c3.31,0,4.1,2.29,4.1,4.71v7.18h-3.69V145c0-1.61-.6-2.28-1.73-2.28s-1.95.65-1.95,2.83v6h-3.69V145c0-1.61-.58-2.26-1.71-2.26s-2,.65-2,2.83v6H155Z" fill="#fff"/><path d="M187.56,146.7H179c.07,1.51,1.08,2.33,2.71,2.33,1.13,0,1.85-.32,2.16-1h3.6c-.36,2.28-2.69,3.79-5.76,3.79-3.93,0-6.36-2.23-6.36-6.1s2.47-6.1,6.24-6.1c3.6,0,6.05,2.24,6.05,5.5A12.92,12.92,0,0,1,187.56,146.7ZM184,144.42a2.18,2.18,0,0,0-2.45-2.35,2.32,2.32,0,0,0-2.57,2.35Z" fill="#fff"/><rect width="300" height="250" fill="none"/></g></g></svg>