<svg xmlns="http://www.w3.org/2000/svg" viewBox="0 0 300 250"><title>txt2b</title><g id="Layer_2" data-name="Layer 2"><g id="txt2b"><path d="M32.54,169.32v7.16H28.85v-6c0-1.94-.56-2.83-2-2.83s-2.24,1-2.24,2.74v6H20.9V159.67h3.67v6.92a3.94,3.94,0,0,1,3.75-2C31.13,164.6,32.54,166.18,32.54,169.32Z" fill="#fff"/><path d="M34.56,170.69c0-3.53,2.45-6.09,6.43-6.09s6.41,2.56,6.41,6.09-2.45,6.1-6.41,6.1S34.56,174.22,34.56,170.69Zm9.19,0a2.77,2.77,0,1,0-2.76,3A2.71,2.71,0,0,0,43.75,170.69Z" fill="#fff"/><path d="M49.51,164.91h3.67v1.68a4,4,0,0,1,6.94.14,4,4,0,0,1,3.69-2.13c3.32,0,4.11,2.28,4.11,4.7v7.18h-3.7V170c0-1.61-.6-2.28-1.73-2.28s-1.94.65-1.94,2.83v6h-3.7V170c0-1.61-.57-2.26-1.7-2.26s-2,.65-2,2.83v6H49.51Z" fill="#fff"/><path d="M82.1,171.7H73.56c.07,1.51,1.08,2.33,2.71,2.33,1.13,0,1.85-.31,2.16-1H82c-.36,2.28-2.69,3.79-5.76,3.79-3.94,0-6.36-2.23-6.36-6.1s2.47-6.09,6.24-6.09c3.6,0,6,2.23,6,5.49A13,13,0,0,1,82.1,171.7Zm-3.53-2.28a2.17,2.17,0,0,0-2.45-2.35,2.31,2.31,0,0,0-2.56,2.35Z" fill="#fff"/><path d="M102.91,170.69c0,3.63-2.23,6.1-5.42,6.1a4.21,4.21,0,0,1-3.7-1.95v6.44H90.14V164.91h3.65v1.65a4.33,4.33,0,0,1,3.79-2C100.75,164.6,102.91,167,102.91,170.69Zm-3.74,0a2.78,2.78,0,1,0-2.74,3.05A2.77,2.77,0,0,0,99.17,170.69Z" fill="#fff"/><path d="M105.12,164.91h3.67v2.42a3.23,3.23,0,0,1,3.19-2.61,3.72,3.72,0,0,1,1,.09v3.41a7.92,7.92,0,0,0-1.1-.07c-2,0-3,1.29-3,3.86v4.47h-3.67Z" fill="#fff"/><path d="M126.12,171.7h-8.55c.07,1.51,1.08,2.33,2.72,2.33,1.12,0,1.84-.31,2.16-1h3.6c-.36,2.28-2.69,3.79-5.76,3.79-3.94,0-6.37-2.23-6.37-6.1s2.48-6.09,6.25-6.09c3.6,0,6,2.23,6,5.49A12.92,12.92,0,0,1,126.12,171.7Zm-3.53-2.28a2.17,2.17,0,0,0-2.45-2.35,2.32,2.32,0,0,0-2.57,2.35Z" fill="#fff"/><path d="M141.09,170.69c0,3.63-2.23,6.1-5.42,6.1a4.21,4.21,0,0,1-3.7-1.95v6.44h-3.65V164.91H132v1.65a4.36,4.36,0,0,1,3.79-2C138.93,164.6,141.09,167,141.09,170.69Zm-3.74,0a2.77,2.77,0,1,0-2.74,3.05A2.77,2.77,0,0,0,137.35,170.69Z" fill="#fff"/><path d="M142.84,174.36a2.38,2.38,0,1,1,2.38,2.36A2.35,2.35,0,0,1,142.84,174.36Z" fill="#fff"/><rect width="300" height="250" fill="none"/></g></g></svg>