<svg xmlns="http://www.w3.org/2000/svg" viewBox="0 0 300 250"><title>txt3a</title><g id="Layer_2" data-name="Layer 2"><g id="txt3a"><path d="M19.94,146h3.89a2.59,2.59,0,0,0,2.74,2.9c1.44,0,2.25-.67,2.25-1.84s-.53-1.56-2-2.16l-3-1.18a4.64,4.64,0,0,1-3.41-4.58c0-3,2.33-4.92,6-4.92s6.14,2.08,6.14,5.32H28.58a2.14,2.14,0,0,0-2.33-2.42c-1.27,0-2,.65-2,1.66s.65,1.51,2.3,2.18l2.79,1.1a4.73,4.73,0,0,1,3.38,4.73c0,3.15-2.45,5.19-6.17,5.19C22.41,152,19.94,149.75,19.94,146Z" fill="#fff"/><path d="M42.19,151.48l-3.7-5v5H34.85v-16.8h3.64v10.1l3.8-4.87h4.32L42,145.38l4.68,6.1Z" fill="#fff"/><path d="M48.19,136.67a2.21,2.21,0,0,1,2.26-2.26,2.25,2.25,0,1,1,0,4.49A2.2,2.2,0,0,1,48.19,136.67Zm.43,3.24h3.65v11.57H48.62Z" fill="#fff"/><path d="M68.09,145.69c0,3.63-2.24,6.1-5.43,6.1A4.2,4.2,0,0,1,59,149.84v6.44H55.32V139.91H59v1.65a4.33,4.33,0,0,1,3.79-2C65.93,139.6,68.09,142,68.09,145.69Zm-3.75,0a2.77,2.77,0,1,0-2.73,3.05A2.77,2.77,0,0,0,64.34,145.69Z" fill="#fff"/><path d="M83.47,148.55v2.93a15,15,0,0,1-2.45.19c-1.73,0-4.1-.38-4.1-4.25v-4.61H75.09v-2.9h1.83v-3.44h3.67v3.44h2.62v2.9H80.59v3.84c0,1.71.7,2,1.61,2A10,10,0,0,0,83.47,148.55Z" fill="#fff"/><path d="M97.22,144.32v7.16H93.53v-6c0-1.94-.56-2.83-2-2.83s-2.24,1-2.24,2.74v6H85.58v-16.8h3.67v6.91a3.94,3.94,0,0,1,3.75-2C95.81,139.6,97.22,141.18,97.22,144.32Z" fill="#fff"/><path d="M111.43,146.7h-8.54C103,148.21,104,149,105.6,149c1.13,0,1.85-.31,2.16-1h3.6c-.36,2.28-2.69,3.79-5.76,3.79-3.94,0-6.36-2.23-6.36-6.1s2.47-6.09,6.24-6.09c3.6,0,6,2.23,6,5.49A13,13,0,0,1,111.43,146.7Zm-3.53-2.28a2.17,2.17,0,0,0-2.45-2.35,2.31,2.31,0,0,0-2.56,2.35Z" fill="#fff"/><rect width="300" height="250" fill="none"/></g></g></svg>