<svg xmlns="http://www.w3.org/2000/svg" viewBox="0 0 300 250"><title>txt3b</title><g id="Layer_2" data-name="Layer 2"><g id="txt3b"><path d="M20,170.69c0-3.53,2.45-6.09,6.43-6.09s6.41,2.56,6.41,6.09-2.45,6.1-6.41,6.1S20,174.22,20,170.69Zm9.19,0a2.77,2.77,0,1,0-2.76,3A2.71,2.71,0,0,0,29.18,170.69Z" fill="#fff"/><path d="M47.71,170.69c0,3.63-2.23,6.1-5.42,6.1a4.21,4.21,0,0,1-3.7-1.95v6.44H34.94V164.91h3.65v1.65a4.33,4.33,0,0,1,3.79-2C45.55,164.6,47.71,167,47.71,170.69Zm-3.74,0a2.77,2.77,0,1,0-2.74,3.05A2.77,2.77,0,0,0,44,170.69Z" fill="#fff"/><path d="M61.27,171.7H52.73c.07,1.51,1.08,2.33,2.71,2.33,1.13,0,1.85-.31,2.16-1h3.6c-.36,2.28-2.69,3.79-5.76,3.79-3.94,0-6.36-2.23-6.36-6.1s2.47-6.09,6.24-6.09c3.6,0,6,2.23,6,5.49A13,13,0,0,1,61.27,171.7Zm-3.53-2.28a2.17,2.17,0,0,0-2.45-2.35,2.31,2.31,0,0,0-2.56,2.35Z" fill="#fff"/><path d="M63.48,164.91h3.67v1.68a3.91,3.91,0,0,1,3.74-2c2.81,0,4.23,1.58,4.23,4.72v7.16h-3.7v-6c0-1.94-.55-2.83-2-2.83s-2.23,1-2.23,2.74v6H63.48Z" fill="#fff"/><path d="M95.52,169.32v7.16h-3.7v-6c0-1.94-.55-2.83-2-2.83s-2.23,1-2.23,2.74v6H83.88V159.67h3.67v6.92a3.91,3.91,0,0,1,3.74-2C94.1,164.6,95.52,166.18,95.52,169.32Z" fill="#fff"/><path d="M97.53,170.69c0-3.53,2.45-6.09,6.43-6.09s6.41,2.56,6.41,6.09-2.44,6.1-6.41,6.1S97.53,174.22,97.53,170.69Zm9.2,0a2.77,2.77,0,1,0-2.77,3A2.72,2.72,0,0,0,106.73,170.69Z" fill="#fff"/><path d="M112.36,172.06v-7.15h3.72v6.33c0,1.59.53,2.45,1.92,2.45,1.56,0,2.24-1,2.24-2.57v-6.21h3.64v11.57h-3.64v-1.66a3.8,3.8,0,0,1-3.6,2C113.85,176.79,112.36,175.06,112.36,172.06Z" fill="#fff"/><path d="M126.09,173h3.65c0,.79.77,1.34,1.9,1.34.79,0,1.34-.38,1.34-1.06,0-.52-.26-.84-1.25-1.08l-2.42-.6a3.37,3.37,0,0,1-2.91-3.38c0-2.18,2-3.62,4.95-3.62,3.26,0,5.16,1.27,5.16,3.57h-3.63c0-.81-.6-1.25-1.58-1.25-.79,0-1.32.39-1.32.94s.34.86,1.27,1.1l2.45.68c1.82.48,2.93,1.58,2.93,3.33,0,2.4-2,3.82-5.07,3.82C128.28,176.79,126.09,175.25,126.09,173Z" fill="#fff"/><path d="M150.26,171.7h-8.54c.07,1.51,1.08,2.33,2.71,2.33,1.13,0,1.85-.31,2.16-1h3.6c-.36,2.28-2.69,3.79-5.76,3.79-3.94,0-6.36-2.23-6.36-6.1s2.47-6.09,6.24-6.09c3.6,0,6.05,2.23,6.05,5.49A13,13,0,0,1,150.26,171.7Zm-3.53-2.28a2.17,2.17,0,0,0-2.45-2.35,2.31,2.31,0,0,0-2.56,2.35Z" fill="#fff"/><path d="M151.67,173h3.65c0,.79.77,1.34,1.9,1.34.79,0,1.34-.38,1.34-1.06,0-.52-.26-.84-1.24-1.08l-2.43-.6a3.36,3.36,0,0,1-2.9-3.38c0-2.18,2-3.62,4.94-3.62,3.27,0,5.16,1.27,5.16,3.57h-3.62c0-.81-.6-1.25-1.59-1.25-.79,0-1.32.39-1.32.94s.34.86,1.28,1.1l2.44.68c1.83.48,2.93,1.58,2.93,3.33,0,2.4-2,3.82-5.06,3.82C153.86,176.79,151.67,175.25,151.67,173Z" fill="#fff"/><path d="M163.94,174.36a2.38,2.38,0,1,1,2.38,2.36A2.35,2.35,0,0,1,163.94,174.36Z" fill="#fff"/><rect width="300" height="250" fill="none"/></g></g></svg>