<svg xmlns="http://www.w3.org/2000/svg" viewBox="0 0 300 250"><title>txt4b</title><g id="Layer_2" data-name="Layer 2"><g id="txt4b"><path d="M32.54,169.32v7.16H28.85v-6c0-1.94-.56-2.83-2-2.83s-2.24,1-2.24,2.74v6H20.9V159.67h3.67v6.92a3.94,3.94,0,0,1,3.75-2C31.13,164.6,32.54,166.18,32.54,169.32Z" fill="#fff"/><path d="M34.63,170.69c0-3.45,2.14-6.09,5.5-6.09a4,4,0,0,1,3.62,2v-1.65H47.4v11.57H43.75v-1.64a4.13,4.13,0,0,1-3.67,1.95C36.62,176.79,34.63,174.17,34.63,170.69Zm9.26,0a2.77,2.77,0,1,0-5.52,0,2.77,2.77,0,0,0,2.76,3.05C43,173.74,43.89,172.37,43.89,170.69Z" fill="#fff"/><path d="M49.61,173h3.64c0,.79.77,1.34,1.9,1.34.79,0,1.34-.38,1.34-1.06,0-.52-.26-.84-1.24-1.08l-2.43-.6a3.36,3.36,0,0,1-2.9-3.38c0-2.18,2-3.62,4.94-3.62,3.27,0,5.16,1.27,5.16,3.57H56.4c0-.81-.6-1.25-1.59-1.25-.79,0-1.32.39-1.32.94s.34.86,1.28,1.1l2.44.68c1.83.48,2.93,1.58,2.93,3.33,0,2.4-2,3.82-5.06,3.82C51.79,176.79,49.61,175.25,49.61,173Z" fill="#fff"/><path d="M61.58,173h3.65c0,.79.77,1.34,1.89,1.34.8,0,1.35-.38,1.35-1.06,0-.52-.26-.84-1.25-1.08l-2.42-.6a3.37,3.37,0,0,1-2.91-3.38c0-2.18,2-3.62,5-3.62,3.26,0,5.16,1.27,5.16,3.57H68.37c0-.81-.6-1.25-1.58-1.25-.79,0-1.32.39-1.32.94s.34.86,1.27,1.1l2.45.68c1.82.48,2.93,1.58,2.93,3.33,0,2.4-2,3.82-5.07,3.82C63.77,176.79,61.58,175.25,61.58,173Z" fill="#fff"/><path d="M74.4,159.67h3.67v16.81H74.4Z" fill="#fff"/><path d="M92.37,171.7H83.83c.07,1.51,1.08,2.33,2.71,2.33,1.13,0,1.85-.31,2.16-1h3.6c-.36,2.28-2.69,3.79-5.76,3.79-3.94,0-6.36-2.23-6.36-6.1s2.47-6.09,6.24-6.09c3.6,0,6,2.23,6,5.49A11.31,11.31,0,0,1,92.37,171.7Zm-3.53-2.28a2.16,2.16,0,0,0-2.44-2.35,2.31,2.31,0,0,0-2.57,2.35Z" fill="#fff"/><path d="M94.12,174.36a2.38,2.38,0,1,1,2.38,2.36A2.35,2.35,0,0,1,94.12,174.36Z" fill="#fff"/><rect width="300" height="250" fill="none"/></g></g></svg>