<svg xmlns="http://www.w3.org/2000/svg" viewBox="0 0 300 250"><defs><style>.cls-1{fill:#fff;}.cls-2{fill:none;}</style></defs><title>txt5</title><g id="Layer_2" data-name="Layer 2"><g id="Layer_5_copy" data-name="Layer 5 copy"><path class="cls-1" d="M97.28,60.81h2V76.49h-2Z"/><path class="cls-1" d="M102.79,66.16h1.95v1.9a3.66,3.66,0,0,1,3.61-2.17c2.53,0,3.83,1.48,3.83,4.24v6.36h-1.93V71c0-2.31-.76-3.41-2.6-3.41s-2.91,1.37-2.91,3.45v5.47h-1.95Z"/><path class="cls-1" d="M120.76,74.74v1.72a8.77,8.77,0,0,1-1.75.16c-1.21,0-3.16-.22-3.16-3.56V67.8H114V66.16h1.86V62.89h2v3.27h2.6V67.8h-2.6v4.83c0,2,.67,2.24,1.66,2.24A7.24,7.24,0,0,0,120.76,74.74Z"/><path class="cls-1" d="M123.11,66.16h2v2.35a3,3,0,0,1,3-2.51,4.16,4.16,0,0,1,.94.09v1.8a4.3,4.3,0,0,0-1-.07c-2,0-3,1.86-3,4.17v4.5h-2Z"/><path class="cls-1" d="M130,71.34a5.38,5.38,0,1,1,5.38,5.42A5.17,5.17,0,0,1,130,71.34Zm8.8,0A3.44,3.44,0,1,0,135.41,75,3.37,3.37,0,0,0,138.83,71.34Z"/><path class="cls-1" d="M153.1,60.81V76.49h-1.92V74.67a4.12,4.12,0,0,1-3.68,2.09c-3.29,0-5.1-2.38-5.1-5.42s1.94-5.45,5.15-5.45A4,4,0,0,1,151.18,68V60.81Zm-1.83,10.53a3.48,3.48,0,1,0-7,0,3.48,3.48,0,1,0,7,0Z"/><path class="cls-1" d="M156.35,72.52V66.16h2v5.91c0,1.82.67,3,2.51,3,2.13,0,2.93-1.62,2.93-3.27V66.16h1.95V76.49h-1.95V74.61a3.61,3.61,0,0,1-3.47,2.15C158,76.76,156.35,75.37,156.35,72.52Z"/><path class="cls-1" d="M168.22,71.34c0-3.21,1.95-5.43,5.13-5.43,2.78,0,4.57,1.53,4.82,3.84h-1.95c-.27-1.37-1.25-2.09-2.89-2.09-2,0-3.18,1.37-3.18,3.68S171.36,75,173.33,75c1.64,0,2.62-.72,2.89-2h1.95c-.25,2.27-2,3.77-4.82,3.77C170.17,76.76,168.22,74.54,168.22,71.34Z"/><path class="cls-1" d="M180.05,62.82a1.58,1.58,0,1,1,3.16,0,1.58,1.58,0,0,1-3.16,0Zm.63,3.34h1.92V76.49h-1.92Z"/><path class="cls-1" d="M186,66.16h1.95v1.9a3.67,3.67,0,0,1,3.61-2.17c2.53,0,3.83,1.48,3.83,4.24v6.36h-1.93V71c0-2.31-.76-3.41-2.6-3.41s-2.91,1.37-2.91,3.45v5.47H186Z"/><path class="cls-1" d="M208.47,66.16V76.22a5.17,5.17,0,0,1-1.79,4.34,5.87,5.87,0,0,1-3.56,1,6.39,6.39,0,0,1-3.67-1,3.49,3.49,0,0,1-1.53-2.73h2c.14,1.21,1.17,2.1,3.14,2.1,2.24,0,3.45-1.07,3.45-3.54V74.67a4.13,4.13,0,0,1-3.68,2.09c-3.15,0-5.1-2.38-5.1-5.42a5.13,5.13,0,0,1,5.15-5.45A3.94,3.94,0,0,1,206.55,68V66.16Zm-1.83,5.18a3.48,3.48,0,1,0-3.5,3.67A3.46,3.46,0,0,0,206.64,71.34Z"/><rect class="cls-2" width="300" height="250"/></g></g></svg>