<svg xmlns="http://www.w3.org/2000/svg" viewBox="0 0 300 250"><title>txt5</title><g id="Layer_2" data-name="Layer 2"><g id="txt5"><path d="M185.73,135.13a12.93,12.93,0,0,1-5.42-1.1,12.32,12.32,0,0,1-4.08-2.93,12.93,12.93,0,0,1-2.57-4.21,13.93,13.93,0,0,1,0-9.85,12.89,12.89,0,0,1,2.57-4.2,12.18,12.18,0,0,1,4.08-2.93,13.93,13.93,0,0,1,10.85,0,12.18,12.18,0,0,1,4.08,2.93,12.89,12.89,0,0,1,2.57,4.2,13.93,13.93,0,0,1,0,9.85,12.93,12.93,0,0,1-2.57,4.21,12.32,12.32,0,0,1-4.08,2.93A12.94,12.94,0,0,1,185.73,135.13Zm0-2.95a9.08,9.08,0,0,0,4-.86,9.33,9.33,0,0,0,3-2.29,10.49,10.49,0,0,0,1.89-3.25,11.23,11.23,0,0,0,.66-3.81,11.34,11.34,0,0,0-.66-3.83,10.39,10.39,0,0,0-1.89-3.27,8.87,8.87,0,0,0-3-2.26,9.07,9.07,0,0,0-4-.85,9.19,9.19,0,0,0-4,.84,9.38,9.38,0,0,0-3,2.27,10,10,0,0,0-1.91,3.27,11.4,11.4,0,0,0-.67,3.83,11.24,11.24,0,0,0,.67,3.81,10,10,0,0,0,1.91,3.25,9.23,9.23,0,0,0,3,2.29,9,9,0,0,0,4,.86Z" fill="#fff"/><path d="M212.3,110.23a6.14,6.14,0,0,0-.94-.23,6.43,6.43,0,0,0-1.07-.08,6.79,6.79,0,0,0-1.1.08,2.15,2.15,0,0,0-1,.41,2.21,2.21,0,0,0-.73,1,5,5,0,0,0-.28,1.89l0,3.06h5.12v2.88H207.2l0,15.26h-3.42V119.24h-3.86v-2.88h3.86v-2.7a9,9,0,0,1,.65-3.8,5.08,5.08,0,0,1,1.59-2,4.68,4.68,0,0,1,2-.83,14.28,14.28,0,0,1,1.85-.16,6.9,6.9,0,0,1,1.44.14,4.91,4.91,0,0,1,1,.34Z" fill="#fff"/><path d="M222.82,110.23a6.3,6.3,0,0,0-2-.31,6.71,6.71,0,0,0-1.1.08,2.19,2.19,0,0,0-1,.41,2.37,2.37,0,0,0-.73,1,5.26,5.26,0,0,0-.27,1.89v3.06h5.12v2.88h-5.12v15.27h-3.43V119.24h-3.85v-2.88h3.85v-2.7a9,9,0,0,1,.65-3.8,5.19,5.19,0,0,1,1.6-2,4.63,4.63,0,0,1,2-.83,12.58,12.58,0,0,1,1.84-.16,7.25,7.25,0,0,1,1.47.14,4.45,4.45,0,0,1,1,.34Z" fill="#fff"/><path d="M227,126.49a7.81,7.81,0,0,0,.38,2.19,5.42,5.42,0,0,0,1,1.8,4.51,4.51,0,0,0,1.71,1.25,6.29,6.29,0,0,0,2.57.46,4.88,4.88,0,0,0,3.11-.86,4.76,4.76,0,0,0,1.51-2h3.54a6.85,6.85,0,0,1-2.57,4.06,8.63,8.63,0,0,1-2.46,1.29,9.65,9.65,0,0,1-3.13.48,10,10,0,0,1-4-.76,8.15,8.15,0,0,1-2.85-2.05,8.51,8.51,0,0,1-1.69-3,12,12,0,0,1-.56-3.72,11.5,11.5,0,0,1,.6-3.81,8.65,8.65,0,0,1,1.75-3.06,8,8,0,0,1,2.81-2,9.6,9.6,0,0,1,3.84-.72,8.72,8.72,0,0,1,3.31.62A8.13,8.13,0,0,1,241,124.2c0,.27,0,.59,0,1a11.75,11.75,0,0,1-.14,1.33Zm5.47-7.84a5.56,5.56,0,0,0-3.86,1.34,5.19,5.19,0,0,0-1.57,3.84h10.57a5,5,0,0,0-1.47-3.8,5.13,5.13,0,0,0-3.67-1.38Z" fill="#fff"/><path d="M255,119.35c-.37-.08-.66-.13-.89-.16a7,7,0,0,0-.8,0,5.24,5.24,0,0,0-4.44,1.92,8.23,8.23,0,0,0-1.47,5.13v8.31H244v-18h3.41v3.24a5.81,5.81,0,0,1,2.37-2.72,6.56,6.56,0,0,1,3.54-1,4.57,4.57,0,0,1,1.69.27Z" fill="#fff"/><path d="M264.83,124.52c.7.21,1.38.44,2,.68a7.13,7.13,0,0,1,1.75.92,4.06,4.06,0,0,1,1.69,3.54,5,5,0,0,1-.54,2.39,4.87,4.87,0,0,1-1.51,1.71,7,7,0,0,1-2.27,1,10.88,10.88,0,0,1-2.84.34,10.13,10.13,0,0,1-2.89-.4,7,7,0,0,1-2.39-1.22,6.22,6.22,0,0,1-1.64-2.07,6.35,6.35,0,0,1-.63-2.9H259a3.39,3.39,0,0,0,1.22,3,5.28,5.28,0,0,0,3.08.86,5,5,0,0,0,2.67-.62,2.2,2.2,0,0,0,1-2,1.81,1.81,0,0,0-.41-1.23,3.56,3.56,0,0,0-1.14-.82,10.8,10.8,0,0,0-1.83-.66c-.72-.2-1.54-.46-2.45-.78q-1-.33-1.95-.69a5.63,5.63,0,0,1-1.57-.92,4,4,0,0,1-1-1.37,4.69,4.69,0,0,1-.38-2,4.64,4.64,0,0,1,2-3.92,6.8,6.8,0,0,1,2.17-1A10,10,0,0,1,263,116a8.41,8.41,0,0,1,2.77.44,6.43,6.43,0,0,1,2.23,1.27,6.07,6.07,0,0,1,1.49,2,5.79,5.79,0,0,1,.54,2.49h-3.38a3.17,3.17,0,0,0-.94-2.47,3.93,3.93,0,0,0-2.75-.87,4.28,4.28,0,0,0-2.42.65,2.12,2.12,0,0,0-1,1.89,1.76,1.76,0,0,0,.34,1.12,2.64,2.64,0,0,0,1,.76,12.06,12.06,0,0,0,1.64.63Z" fill="#fff"/><path d="M138.6,116.41h5.78l1.67,5.48c.56,1.82,1,3.52,1.5,5.25h.07c.48-1.69,1-3.49,1.53-5.25l1.76-5.47h4.27l1.72,5.47c.59,1.88,1,3.52,1.5,5.25h.07c.45-1.73.95-3.41,1.5-5.25l1.68-5.47H167l-5.81,18.1h-5.29L154.48,130c-.55-1.79-1.08-3.6-1.54-5.28h-.07c-.45,1.68-1,3.43-1.56,5.25l-1.47,4.57h-5.38Z" fill="#fff"/><rect x="99.67" y="106.85" width="5.85" height="27.67" fill="#fff"/><rect x="109.85" y="106.85" width="5.85" height="27.67" fill="#fff"/><path d="M118.6,125.53a9.84,9.84,0,1,1,9.87,9.6,9.61,9.61,0,0,1-9.87-9.6m14.07,0a4.24,4.24,0,1,0-4.2,4.53,4.29,4.29,0,0,0,4.2-4.53" fill="#fff"/><polygon points="65.81 109.41 65.81 114.75 76.15 114.75 76.19 114.82 65.5 132.99 65.5 134.52 85.64 134.52 85.64 129.2 74.45 129.2 74.42 129.12 85.1 110.96 85.09 110.96 85.09 109.41 65.81 109.41" fill="#fff"/><path d="M92.3,107.35A3.28,3.28,0,1,1,89,110.63a3.31,3.31,0,0,1,3.33-3.28m-2.93,9.07h5.85v18.1H89.37Z" fill="#fff"/><path d="M47.33,113a.25.25,0,0,1,.28.09c.48.5,2,2.23,2.45,2.71a.16.16,0,0,1,0,.22l0,0a52.86,52.86,0,0,0-7.8,8.27s0,.06,0,0a93.12,93.12,0,0,1,14.08-4.79v-3.75L43,105.28,29.7,115.79V121A93.86,93.86,0,0,1,47.33,113Z" fill="#fff"/><path d="M37.25,131.48a.22.22,0,0,1-.29,0l-2.6-2.85c-.08-.08-.08-.12,0-.26a46.79,46.79,0,0,1,8-9.37s0-.07,0,0a112.16,112.16,0,0,0-12.6,6.14v9.46H56.33V124.33C52.63,125.14,42,128.76,37.25,131.48Z" fill="#fff"/><path d="M170.78,113.76a.85.85,0,0,0-.87-.89H169v2.54h.42v-.76h.41l.46.76h.47l-.5-.82A.85.85,0,0,0,170.78,113.76Zm-.9.52h-.49v-1h.49a.52.52,0,0,1,0,1Z" fill="#fff"/><path d="M169.78,112a2.2,2.2,0,1,0,2.19,2.2h0A2.2,2.2,0,0,0,169.78,112Zm0,4a1.78,1.78,0,1,1,1.77-1.78h0A1.77,1.77,0,0,1,169.78,116Z" fill="#fff"/><path d="M83.38,38.22h2.55v19.6H83.38Z" fill="#fff"/><path d="M90.27,44.91h2.44v2.38a4.57,4.57,0,0,1,4.5-2.72c3.17,0,4.79,1.85,4.79,5.3v8H99.59V50.93c0-2.88-1-4.26-3.24-4.26S92.71,48.38,92.71,51v6.83H90.27Z" fill="#fff"/><path d="M112.73,55.63v2.16a11.2,11.2,0,0,1-2.19.2c-1.51,0-3.94-.28-3.94-4.46V47h-2.33v-2h2.33V40.82H109v4.09h3.25v2H109v6c0,2.47.84,2.8,2.07,2.8A8.87,8.87,0,0,0,112.73,55.63Z" fill="#fff"/><path d="M115.67,44.91h2.43v2.94a3.8,3.8,0,0,1,3.78-3.14,4.51,4.51,0,0,1,1.18.12v2.24a5.35,5.35,0,0,0-1.21-.09c-2.54,0-3.75,2.33-3.75,5.21v5.63h-2.43Z" fill="#fff"/><path d="M124.32,51.38a6.72,6.72,0,1,1,13.44,0,6.72,6.72,0,1,1-13.44,0Zm11,0c0-2.61-1.57-4.62-4.28-4.62s-4.31,2-4.31,4.62S128.32,56,131,56,135.32,54,135.32,51.38Z" fill="#fff"/><path d="M153.16,38.22v19.6h-2.41V55.55a5.13,5.13,0,0,1-4.59,2.6c-4.12,0-6.39-3-6.39-6.77s2.44-6.81,6.44-6.81a5,5,0,0,1,4.54,2.64v-9Zm-2.3,13.16c0-2.49-1.54-4.62-4.37-4.62-2.66,0-4.31,2-4.31,4.62S143.83,56,146.49,56A4.26,4.26,0,0,0,150.86,51.38Z" fill="#fff"/><path d="M157.22,52.86v-8h2.43V52.3c0,2.27.84,3.75,3.14,3.75,2.66,0,3.67-2,3.67-4.08V44.91h2.43V57.82h-2.43V55.47a4.51,4.51,0,0,1-4.34,2.68C159.23,58.15,157.22,56.42,157.22,52.86Z" fill="#fff"/><path d="M172.06,51.38c0-4,2.43-6.78,6.41-6.78,3.47,0,5.71,1.91,6,4.79h-2.44c-.33-1.71-1.56-2.6-3.61-2.6-2.46,0-4,1.7-4,4.59S176,56,178.44,56c2.05,0,3.28-.9,3.61-2.52h2.44c-.31,2.83-2.55,4.7-6,4.7C174.49,58.15,172.06,55.38,172.06,51.38Z" fill="#fff"/><path d="M186.84,40.74a2,2,0,1,1,3.95,0,2,2,0,0,1-3.95,0Zm.79,4.17H190V57.82h-2.4Z" fill="#fff"/><path d="M194.23,44.91h2.44v2.38a4.59,4.59,0,0,1,4.51-2.72c3.16,0,4.79,1.85,4.79,5.3v8h-2.41V50.93c0-2.88-.95-4.26-3.25-4.26s-3.64,1.71-3.64,4.32v6.83h-2.44Z" fill="#fff"/><path d="M222.37,44.91V57.48c0,2.47-.78,4.31-2.24,5.43a7.29,7.29,0,0,1-4.45,1.21,8,8,0,0,1-4.59-1.26,4.34,4.34,0,0,1-1.9-3.42h2.54c.17,1.51,1.46,2.63,3.92,2.63,2.8,0,4.32-1.34,4.32-4.42v-2.1a5.18,5.18,0,0,1-4.6,2.6c-3.94,0-6.38-3-6.38-6.77s2.6-6.81,6.44-6.81A4.92,4.92,0,0,1,220,47.21v-2.3Zm-2.29,6.47a4.35,4.35,0,1,0-8.68,0,4.35,4.35,0,1,0,8.68,0Z" fill="#fff"/><rect width="300" height="250" fill="none"/></g></g></svg>