<svg xmlns="http://www.w3.org/2000/svg" viewBox="0 0 728 90"><title>bg</title><g id="Layer_2" data-name="Layer 2"><g id="bg"><path d="M158,90H613V61C360.63,9.4,236.68,40.53,158,90Z" fill="#ffd237"/><path d="M220,90H728V0H347C289.52,24.19,252.49,58.64,220,90Z" fill="#006aff"/><path d="M303.75,82.17c.21-.15.42-.3.62-.46a15.36,15.36,0,0,0,5-8c1-3.47,1.19-7.4-.9-10.94-6-10.11-17.8-4.67-22.41.8a12.07,12.07,0,0,0-2.56,11.57,14.38,14.38,0,0,0,10.59,9.08A12.91,12.91,0,0,0,303.75,82.17Z" fill="#f2a619"/><rect x="296" y="66" width="2" height="24" fill="#c88205"/><polygon points="354 46 371 63 371 90 339.8 90 323 46 354 46" fill="#0d4599"/><polygon points="323 46 340 63 340 90 305 90 305 63 323 46" fill="#e0f2ff"/><rect x="317" y="75" width="10" height="15" fill="#006aff"/><path d="M366,85H345V68h21Zm-19-2h17V70H347Z" fill="#e0f2ff"/><rect width="728" height="90" fill="none"/><path d="M644.27,67.59a9.21,9.21,0,0,1-3.78-.76,8.53,8.53,0,0,1-2.83-2,8.88,8.88,0,0,1-1.78-2.91,9.63,9.63,0,0,1,0-6.85,9.06,9.06,0,0,1,1.78-2.92,8.59,8.59,0,0,1,2.83-2,9.88,9.88,0,0,1,7.55,0,8.69,8.69,0,0,1,4.62,5,9.63,9.63,0,0,1,0,6.85,9.12,9.12,0,0,1-1.78,2.91,8.68,8.68,0,0,1-2.84,2A9.13,9.13,0,0,1,644.27,67.59Zm0-2a6.11,6.11,0,0,0,2.76-.61,6.35,6.35,0,0,0,2.09-1.58,7.27,7.27,0,0,0,1.31-2.26,7.7,7.7,0,0,0,.46-2.65,7.85,7.85,0,0,0-.46-2.67,7.1,7.1,0,0,0-1.31-2.27A6.09,6.09,0,0,0,647,51.93a6.8,6.8,0,0,0-5.54,0,6.5,6.5,0,0,0-2.09,1.57,6.94,6.94,0,0,0-1.32,2.27,7.92,7.92,0,0,0,0,5.32,6.9,6.9,0,0,0,1.32,2.26,6.32,6.32,0,0,0,2.09,1.58A6.17,6.17,0,0,0,644.27,65.54Z" fill="#fff"/><path d="M662.11,51.43a4.66,4.66,0,0,0-.62-.15,4.79,4.79,0,0,0-.69-.06,4.37,4.37,0,0,0-.72.06,1.44,1.44,0,0,0-.64.27,1.54,1.54,0,0,0-.48.64,3.34,3.34,0,0,0-.18,1.22v2h3.33v1.87h-3.33v9.91h-2.22l0-9.91h-2.5V55.39h2.5l0-1.75a5.91,5.91,0,0,1,.42-2.47,3.4,3.4,0,0,1,1-1.32,2.87,2.87,0,0,1,1.31-.53,7.94,7.94,0,0,1,1.2-.1,5,5,0,0,1,.93.08,3.1,3.1,0,0,1,.65.21v1.92Z" fill="#fff"/><path d="M668.93,51.43a4.66,4.66,0,0,0-.62-.15,4.79,4.79,0,0,0-.69-.06,4.17,4.17,0,0,0-.71.06,1.43,1.43,0,0,0-.65.27,1.54,1.54,0,0,0-.48.64,3.34,3.34,0,0,0-.18,1.22v2h3.33v1.87h-3.33v9.91h-2.22l0-9.91h-2.5V55.39h2.5l0-1.75a5.91,5.91,0,0,1,.42-2.47,3.4,3.4,0,0,1,1-1.32,2.88,2.88,0,0,1,1.29-.53,7.84,7.84,0,0,1,1.2-.1,5.11,5.11,0,0,1,.95.08,3.1,3.1,0,0,1,.65.21Z" fill="#fff"/><path d="M671.62,62a4.58,4.58,0,0,0,.25,1.41,4,4,0,0,0,.65,1.18,3.12,3.12,0,0,0,1.11.82,4.31,4.31,0,0,0,1.67.29,3.14,3.14,0,0,0,2-.56,3.2,3.2,0,0,0,1-1.32h2.29a4.23,4.23,0,0,1-.58,1.43,4.42,4.42,0,0,1-1.09,1.2,5,5,0,0,1-1.59.82,6.18,6.18,0,0,1-2,.31,6.53,6.53,0,0,1-2.61-.49,5.15,5.15,0,0,1-3-3.3,7.85,7.85,0,0,1-.36-2.41,7.35,7.35,0,0,1,.39-2.47,5.76,5.76,0,0,1,1.13-2,5.13,5.13,0,0,1,1.83-1.3,6.23,6.23,0,0,1,2.48-.47,5.68,5.68,0,0,1,2.15.41,5.16,5.16,0,0,1,1.74,1.14,5.53,5.53,0,0,1,1.17,1.71,5.22,5.22,0,0,1,.42,2.1c0,.17,0,.38,0,.64a6.2,6.2,0,0,1-.1.85h-9Zm3.55-5.1a3.62,3.62,0,0,0-2.5.87,3.36,3.36,0,0,0-1,2.49h6.86a3.26,3.26,0,0,0-.95-2.47A3.45,3.45,0,0,0,675.17,56.89Z" fill="#fff"/><path d="M689.82,57.34l-.57-.1-.52,0a3.39,3.39,0,0,0-2.88,1.25,5.32,5.32,0,0,0-1,3.32v5.39h-2.21V55.48h2.21v2.1a3.74,3.74,0,0,1,1.53-1.77,4.22,4.22,0,0,1,2.3-.67,2.89,2.89,0,0,1,1.09.18v2Z" fill="#fff"/><path d="M696.18,60.71c.45.14.88.28,1.32.45a4.2,4.2,0,0,1,1.13.6,2.74,2.74,0,0,1,.8.92,2.81,2.81,0,0,1,.3,1.37,3.26,3.26,0,0,1-.35,1.56,3.16,3.16,0,0,1-1,1.11,4.54,4.54,0,0,1-1.48.66,7.14,7.14,0,0,1-1.84.22,6.11,6.11,0,0,1-1.88-.27,4.09,4.09,0,0,1-1.55-.8,3.83,3.83,0,0,1-1.07-1.34,4.16,4.16,0,0,1-.41-1.88h2.22a2.22,2.22,0,0,0,.8,1.92,3.32,3.32,0,0,0,2,.56,3.25,3.25,0,0,0,1.74-.41,1.42,1.42,0,0,0,.65-1.29,1.17,1.17,0,0,0-.27-.8,2.31,2.31,0,0,0-.74-.53,7.55,7.55,0,0,0-1.19-.44c-.47-.12-1-.29-1.59-.5a12.32,12.32,0,0,1-1.26-.45,3.15,3.15,0,0,1-1-.6,2.61,2.61,0,0,1-.68-.89,3.49,3.49,0,0,1,.09-2.8,2.84,2.84,0,0,1,.94-1.07,4.3,4.3,0,0,1,1.4-.65,6.35,6.35,0,0,1,1.73-.22,5.69,5.69,0,0,1,1.79.28,4.23,4.23,0,0,1,1.45.83,4,4,0,0,1,1,1.26,3.76,3.76,0,0,1,.35,1.61h-2.19a2,2,0,0,0-.62-1.6A2.58,2.58,0,0,0,695,57a2.71,2.71,0,0,0-1.56.42,1.4,1.4,0,0,0-.63,1.23,1.17,1.17,0,0,0,.22.73,1.93,1.93,0,0,0,.66.49,7.14,7.14,0,0,0,1.07.4Z" fill="#fff"/><path d="M683,32.73h3.75l1.08,3.55c.36,1.18.67,2.29,1,3.41h0c.31-1.1.63-2.28,1-3.41l1.14-3.55h2.79l1.12,3.55c.38,1.22.66,2.27,1,3.41h0c.3-1.12.62-2.22,1-3.41l1.08-3.55h3.48L697.6,44.47h-3.43l-.94-2.94c-.36-1.15-.7-2.33-1-3.43h0c-.29,1.1-.63,2.22-1,3.4l-.95,3h-3.5Z" fill="#fff"/><rect x="657.7" y="26.52" width="3.8" height="17.95" fill="#fff"/><rect x="664.31" y="26.52" width="3.8" height="17.95" fill="#fff"/><path d="M670,38.65a6.39,6.39,0,1,1,6.4,6.23,6.24,6.24,0,0,1-6.4-6.23m9.12,0a2.75,2.75,0,1,0-2.72,2.93,2.77,2.77,0,0,0,2.72-2.93" fill="#fff"/><polygon points="635.74 28.2 635.74 31.65 642.45 31.65 642.47 31.7 635.53 43.49 635.53 44.47 648.61 44.47 648.61 41.02 641.34 41.02 641.32 40.98 648.25 29.19 648.24 29.19 648.24 28.2 635.74 28.2" fill="#fff"/><path d="M652.91,26.85A2.13,2.13,0,1,1,650.75,29a2.16,2.16,0,0,1,2.16-2.13M651,32.73h3.79V44.47H651Z" fill="#fff"/><path d="M612.47,34.22c.2-.06.29,0,.43.14.73.75,3.11,3.42,3.75,4.15a.23.23,0,0,1,0,.36,82.45,82.45,0,0,0-12,12.7c-.06.09,0,.09,0,.07a140.59,140.59,0,0,1,21.59-7.35V38.54L605.87,22.4,585.43,38.52v8C591.66,42.48,605.94,36.12,612.47,34.22Z" fill="#fff"/><path d="M597,62.6a.33.33,0,0,1-.44,0l-4-4.38c-.11-.11-.13-.18,0-.39,2.76-4.43,8.5-11.38,12.21-14.38.07-.06,0-.1,0-.07a168,168,0,0,0-19.32,9.41V67.26h40.85V51.63C620.61,52.87,604.36,58.42,597,62.6Z" fill="#fff"/><path d="M704.77,31.56a.47.47,0,0,0-.49-.49h-.52v1.42H704v-.42h.22l.27.42h.26l-.28-.46A.48.48,0,0,0,704.77,31.56Zm-.52.3H704v-.58h.27a.28.28,0,0,1,.26.3A.25.25,0,0,1,704.25,31.86Z" fill="#fff"/><path d="M704.19,30.57a1.24,1.24,0,1,0,1.24,1.23A1.23,1.23,0,0,0,704.19,30.57Zm0,2.2a1,1,0,0,1-1-1,1,1,0,0,1,1-1,1,1,0,0,1,1,1A1,1,0,0,1,704.19,32.77Z" fill="#fff"/></g></g></svg>