<svg xmlns="http://www.w3.org/2000/svg" viewBox="0 0 728 90"><title>cta</title><g id="Layer_2" data-name="Layer 2"><g id="Layer_15" data-name="Layer 15"><path d="M650.71,27.22H510.15c-2.46,0-4.45,1.2-4.45,2.68V62.1c0,1.48,2,2.68,4.45,2.68H687.54c2.46,0,4.45-1.2,4.45-2.68V29.9c0-1.48-2-2.68-4.45-2.68Z" fill="none" stroke="#fff" stroke-miterlimit="10" stroke-width="1.33"/><path d="M533.23,48.05l2.13,3.49h-2l-2-3.25h-1.75v3.25h-1.78V40.71h4a3.61,3.61,0,0,1,3.71,3.79A3.65,3.65,0,0,1,533.23,48.05Zm-3.62-1.35h2.1a2.2,2.2,0,0,0,0-4.39h-2.1Z" fill="#fff"/><path d="M543.48,48.5h-5.35a1.77,1.77,0,0,0,2,1.76,1.57,1.57,0,0,0,1.61-.82h1.7c-.21,1.35-1.58,2.29-3.31,2.29a3.47,3.47,0,0,1-3.68-3.79,3.47,3.47,0,0,1,3.62-3.79,3.26,3.26,0,0,1,3.45,3.42C543.53,47.86,543.51,48.09,543.48,48.5Zm-1.61-1.29a1.62,1.62,0,0,0-1.82-1.73,1.73,1.73,0,0,0-1.92,1.73Z" fill="#fff"/><path d="M552.14,44.33V54.79h-1.67V50.57a2.78,2.78,0,0,1-2.32,1.16c-2.32,0-3.54-1.67-3.54-3.79a3.52,3.52,0,0,1,3.59-3.79,2.61,2.61,0,0,1,2.27,1.16v-1Zm-1.6,3.61a2.13,2.13,0,1,0-2.14,2.29A2.08,2.08,0,0,0,550.54,47.94Z" fill="#fff"/><path d="M554.23,48.87V44.33h1.69v4.12c0,1.16.37,1.84,1.47,1.84,1.28,0,1.74-.85,1.74-1.89V44.33h1.69v7.21h-1.69v-1a2.37,2.37,0,0,1-2.22,1.19A2.53,2.53,0,0,1,554.23,48.87Z" fill="#fff"/><path d="M569.47,48.5h-5.36a1.77,1.77,0,0,0,2,1.76,1.57,1.57,0,0,0,1.61-.82h1.71c-.22,1.35-1.58,2.29-3.32,2.29a3.47,3.47,0,0,1-3.68-3.79,3.48,3.48,0,0,1,3.62-3.79,3.26,3.26,0,0,1,3.45,3.42C569.51,47.86,569.5,48.09,569.47,48.5Zm-1.61-1.29A1.63,1.63,0,0,0,566,45.48a1.73,1.73,0,0,0-1.92,1.73Z" fill="#fff"/><path d="M570.59,49.33h1.69c0,.62.6,1.05,1.47,1.05.63,0,1-.34,1-.85s-.17-.65-.95-.85l-1.44-.39a2,2,0,0,1-1.57-2c0-1.23,1.16-2.12,2.77-2.12s2.84.85,2.84,2.24h-1.65c0-.6-.47-1-1.26-1-.6,0-1,.31-1,.74s.23.65.89.84l1.44.42a2.1,2.1,0,0,1,1.67,2.06c0,1.4-1.09,2.24-2.84,2.24S570.59,50.71,570.59,49.33Z" fill="#fff"/><path d="M582.16,50.06v1.48a7.46,7.46,0,0,1-1.25.1c-.82,0-2.33-.11-2.33-2.54V45.74h-1.23V44.33h1.23V42.15h1.68v2.18h1.66v1.41h-1.66v3c0,1.25.39,1.41,1,1.41A6.51,6.51,0,0,0,582.16,50.06Z" fill="#fff"/><path d="M587,47.94a3.52,3.52,0,0,1,3.58-3.79,2.64,2.64,0,0,1,2.28,1.16v-1h1.67v7.21H592.9v-1a2.81,2.81,0,0,1-2.32,1.16C588.26,51.73,587,50.06,587,47.94Zm5.92,0a2.13,2.13,0,1,0-2.13,2.29A2.07,2.07,0,0,0,593,47.94Z" fill="#fff"/><path d="M600.06,47.94a3.46,3.46,0,0,1,3.59-3.79c2,0,3.26,1.1,3.42,2.75h-1.69a1.53,1.53,0,0,0-1.73-1.25c-1.19,0-1.9.82-1.9,2.29s.71,2.29,1.9,2.29c1,0,1.55-.42,1.73-1.18h1.69c-.16,1.61-1.41,2.68-3.42,2.68A3.46,3.46,0,0,1,600.06,47.94Z" fill="#fff"/><path d="M608.15,47.94a3.52,3.52,0,0,1,3.59-3.79A2.62,2.62,0,0,1,614,45.31v-1h1.67v7.21H614v-1a2.81,2.81,0,0,1-2.32,1.16C609.37,51.73,608.15,50.06,608.15,47.94Zm5.92,0a2.13,2.13,0,1,0-2.13,2.29A2.07,2.07,0,0,0,614.07,47.94Z" fill="#fff"/><path d="M617.3,49.33H619c0,.62.6,1.05,1.47,1.05.63,0,1-.34,1-.85s-.17-.65-1-.85l-1.44-.39a2,2,0,0,1-1.57-2c0-1.23,1.16-2.12,2.77-2.12,1.76,0,2.84.85,2.84,2.24H621.5c0-.6-.47-1-1.26-1-.6,0-1,.31-1,.74s.23.65.89.84l1.44.42a2.1,2.1,0,0,1,1.67,2.06c0,1.4-1.09,2.24-2.84,2.24S617.3,50.71,617.3,49.33Z" fill="#fff"/><path d="M631.58,47v4.53H629.9V47.78c0-1.53-.41-2.19-1.58-2.19s-1.72.72-1.72,2v4h-1.69V40.71h1.69v4.63A2.55,2.55,0,0,1,629,44.15C630.69,44.15,631.58,45.12,631.58,47Z" fill="#fff"/><path d="M637,47.94a3.81,3.81,0,1,1,3.81,3.79A3.62,3.62,0,0,1,637,47.94Zm5.93,0a2.13,2.13,0,1,0-2.12,2.29A2.07,2.07,0,0,0,642.92,47.94Z" fill="#fff"/><path d="M649.21,40.62a3.61,3.61,0,0,1,1.13.14v1.42c-.23,0-.41-.06-.66-.06-.51,0-1.22.08-1.22,1.13v1.08h1.88v1.41h-1.88v5.8h-1.69v-5.8H645.3V44.33h1.47v-1A2.36,2.36,0,0,1,649.21,40.62Zm5.14,2.63v1.08h1.89v1.41h-1.89v5.8h-1.69v-5.8h-1.47V44.33h1.47v-1a2.36,2.36,0,0,1,2.45-2.66,3.65,3.65,0,0,1,1.13.14v1.42c-.23,0-.42-.06-.67-.06C655.06,42.12,654.35,42.2,654.35,43.25Z" fill="#fff"/><path d="M663.88,48.5h-5.35a1.76,1.76,0,0,0,2,1.76,1.58,1.58,0,0,0,1.61-.82h1.7c-.22,1.35-1.58,2.29-3.31,2.29a3.47,3.47,0,0,1-3.69-3.79,3.48,3.48,0,0,1,3.62-3.79,3.26,3.26,0,0,1,3.45,3.42C663.92,47.86,663.91,48.09,663.88,48.5Zm-1.61-1.29a1.63,1.63,0,0,0-1.83-1.73,1.72,1.72,0,0,0-1.91,1.73Z" fill="#fff"/><path d="M665.55,44.33h1.68v1.4a2,2,0,0,1,1.92-1.49,3.2,3.2,0,0,1,.67.06v1.55a5,5,0,0,0-.67,0c-1.19,0-1.92.9-1.92,2.54v3.18h-1.68Z" fill="#fff"/><rect width="728" height="90" fill="none"/></g></g></svg>