<svg xmlns="http://www.w3.org/2000/svg" viewBox="0 0 160 600"><title>txt1c</title><g id="Layer_2" data-name="Layer 2"><g id="Layer_6" data-name="Layer 6"><path d="M28.84,466.26H21.9V463H35l-7.89,13.54h7.46v3.26H20.87Z" fill="#fff"/><path d="M36.52,465a2.21,2.21,0,0,1,2.25-2.26,2.25,2.25,0,1,1,0,4.49A2.2,2.2,0,0,1,36.52,465Zm.43,3.24H40.6V479.8H37Z" fill="#fff"/><path d="M43.64,463h3.68v16.8H43.64Z" fill="#fff"/><path d="M50.34,463H54v16.8H50.34Z" fill="#fff"/><path d="M56.12,474c0-3.52,2.45-6.09,6.43-6.09S69,470.49,69,474s-2.44,6.1-6.41,6.1S56.12,477.54,56.12,474Zm9.2,0a2.77,2.77,0,1,0-2.77,3A2.72,2.72,0,0,0,65.32,474Z" fill="#fff"/><path d="M69.16,468.23H73l2.08,7,2-7h3.58l2,7,2.08-7H88.5L84.35,479.8H81.06l-2.23-7-2.21,7H73.33Z" fill="#fff"/><path d="M88.76,477.69A2.38,2.38,0,1,1,91.14,480,2.35,2.35,0,0,1,88.76,477.69Z" fill="#fff"/><polyline points="0 0 160 0 160 600 0 600" fill="none"/></g></g></svg>