<svg xmlns="http://www.w3.org/2000/svg" viewBox="0 0 728 90"><title>txt1b</title><g id="Layer_2" data-name="Layer 2"><g id="_1b" data-name="1b"><path d="M403.12,62.43v2.93a15,15,0,0,1-2.45.19c-1.73,0-4.11-.38-4.11-4.25V56.69h-1.82v-2.9h1.82V50.36h3.68v3.43h2.61v2.9h-2.61v3.84c0,1.71.69,2,1.6,2A10.19,10.19,0,0,0,403.12,62.43Z" fill="#fff"/><path d="M404.32,59.57c0-3.53,2.44-6.09,6.43-6.09s6.41,2.56,6.41,6.09-2.45,6.1-6.41,6.1S404.32,63.1,404.32,59.57Zm9.19,0a2.77,2.77,0,1,0-2.76,3A2.71,2.71,0,0,0,413.51,59.57Z" fill="#fff"/><path d="M431.87,51.82h-6.94V48.56H438l-7.9,13.53h7.47v3.27H423.9Z" fill="#fff"/><path d="M439.55,50.55a2.21,2.21,0,0,1,2.25-2.26,2.25,2.25,0,1,1,0,4.49A2.2,2.2,0,0,1,439.55,50.55Zm.43,3.24h3.65V65.36H440Z" fill="#fff"/><path d="M446.68,48.56h3.67v16.8h-3.67Z" fill="#fff"/><path d="M453.37,48.56H457v16.8h-3.67Z" fill="#fff"/><path d="M459.16,59.57c0-3.53,2.44-6.09,6.43-6.09S472,56,472,59.57s-2.45,6.1-6.41,6.1S459.16,63.1,459.16,59.57Zm9.19,0a2.77,2.77,0,1,0-2.76,3A2.71,2.71,0,0,0,468.35,59.57Z" fill="#fff"/><path d="M472.19,53.79H476l2.09,7,2-7h3.58l2,7,2.09-7h3.81l-4.15,11.57h-3.29l-2.23-7-2.21,7h-3.29Z" fill="#fff"/><path d="M491.79,63.25a2.38,2.38,0,1,1,2.38,2.35A2.36,2.36,0,0,1,491.79,63.25Z" fill="#fff"/><rect width="728" height="90" fill="none"/></g></g></svg>