<svg xmlns="http://www.w3.org/2000/svg" viewBox="0 0 728 90"><title>txt1a</title><g id="Layer_2" data-name="Layer 2"><g id="_1a" data-name="1a"><path d="M394.81,32.86h3.89a2.6,2.6,0,0,0,2.74,2.91c1.44,0,2.25-.68,2.25-1.85s-.52-1.56-2-2.16l-3-1.18A4.64,4.64,0,0,1,395.22,26c0-3,2.33-4.92,6-4.92s6.14,2.08,6.14,5.32h-3.89A2.14,2.14,0,0,0,401.12,24c-1.27,0-2,.65-2,1.66s.65,1.51,2.3,2.18l2.79,1.11a4.7,4.7,0,0,1,3.38,4.72c0,3.15-2.45,5.19-6.17,5.19C397.29,38.84,394.81,36.63,394.81,32.86Z" fill="#fff"/><path d="M421.17,33.58h-8.55c.07,1.51,1.08,2.33,2.71,2.33,1.13,0,1.85-.31,2.16-1h3.6c-.36,2.28-2.68,3.79-5.76,3.79-3.93,0-6.36-2.23-6.36-6.1s2.47-6.09,6.24-6.09c3.6,0,6.05,2.23,6.05,5.49A12.92,12.92,0,0,1,421.17,33.58Zm-3.53-2.28A2.18,2.18,0,0,0,415.19,29a2.31,2.31,0,0,0-2.57,2.35Z" fill="#fff"/><path d="M423.37,21.56H427v16.8h-3.67Z" fill="#fff"/><path d="M430.07,21.56h3.67v16.8h-3.67Z" fill="#fff"/><path d="M454.09,26.79V38a5.45,5.45,0,0,1-1.65,4.17,6.07,6.07,0,0,1-4.25,1.35,6.44,6.44,0,0,1-4.27-1.2,4.1,4.1,0,0,1-1.44-3h3.69c.07,1,.63,1.56,2,1.56s2.23-.79,2.23-2.59v-1.8a3.88,3.88,0,0,1-3.67,1.92c-2.95,0-4.27-2-4.27-4.85V26.79h3.67V33c0,1.49.5,2.49,2,2.49s2.23-1.15,2.23-2.92V26.79Z" fill="#fff"/><path d="M456.2,32.57c0-3.53,2.45-6.09,6.44-6.09S469,29,469,32.57s-2.44,6.1-6.4,6.1S456.2,36.1,456.2,32.57Zm9.2,0a2.77,2.77,0,1,0-5.52,0,2.77,2.77,0,1,0,5.52,0Z" fill="#fff"/><path d="M471,33.94V26.79h3.72v6.33c0,1.59.52,2.45,1.92,2.45,1.56,0,2.23-1,2.23-2.56V26.79h3.65V38.36h-3.65V36.7a3.78,3.78,0,0,1-3.6,2C472.52,38.67,471,36.94,471,33.94Z" fill="#fff"/><path d="M485.6,26.79h3.68v2.42a3.22,3.22,0,0,1,3.19-2.61,3.72,3.72,0,0,1,1,.09V30.1a8,8,0,0,0-1.11-.07c-2,0-3,1.3-3,3.86v4.47H485.6Z" fill="#fff"/><path d="M512.87,31.21v7.15h-3.7v-6c0-1.95-.55-2.84-2-2.84s-2.23,1-2.23,2.74v6h-3.67V21.56h3.67v6.91a3.91,3.91,0,0,1,3.74-2C511.45,26.48,512.87,28.06,512.87,31.21Z" fill="#fff"/><path d="M514.88,32.57c0-3.53,2.45-6.09,6.44-6.09s6.4,2.56,6.4,6.09-2.44,6.1-6.4,6.1S514.88,36.1,514.88,32.57Zm9.2,0a2.77,2.77,0,1,0-5.53,0,2.77,2.77,0,1,0,5.53,0Z" fill="#fff"/><path d="M529.83,26.79h3.68v1.68a3.94,3.94,0,0,1,6.93.14,4.07,4.07,0,0,1,3.7-2.13c3.31,0,4.1,2.28,4.1,4.7v7.18h-3.69V31.85c0-1.6-.6-2.28-1.73-2.28s-1.94.65-1.94,2.84v6h-3.7V31.83c0-1.61-.58-2.26-1.7-2.26s-2,.65-2,2.84v6h-3.68Z" fill="#fff"/><path d="M562.43,33.58h-8.55c.07,1.51,1.08,2.33,2.71,2.33,1.13,0,1.85-.31,2.16-1h3.61c-.36,2.28-2.69,3.79-5.77,3.79-3.93,0-6.36-2.23-6.36-6.1s2.48-6.09,6.24-6.09,6,2.23,6,5.49A12.92,12.92,0,0,1,562.43,33.58ZM558.9,31.3A2.18,2.18,0,0,0,556.45,29a2.32,2.32,0,0,0-2.57,2.35Z" fill="#fff"/><rect width="728" height="90" fill="none"/></g></g></svg>