<svg xmlns="http://www.w3.org/2000/svg" viewBox="0 0 728 90"><title>txt2b</title><g id="Layer_2" data-name="Layer 2"><g id="Layer_7" data-name="Layer 7"><path d="M407.41,58.21v7.15h-3.69v-6c0-1.95-.55-2.84-2-2.84s-2.23,1-2.23,2.74v6h-3.68V48.56h3.68v6.91a3.91,3.91,0,0,1,3.74-2Q407.41,53.48,407.41,58.21Z" fill="#fff"/><path d="M409.43,59.57c0-3.53,2.45-6.09,6.43-6.09s6.41,2.56,6.41,6.09-2.45,6.1-6.41,6.1S409.43,63.1,409.43,59.57Zm9.19,0a2.77,2.77,0,1,0-2.76,3A2.71,2.71,0,0,0,418.62,59.57Z" fill="#fff"/><path d="M424.38,53.79h3.67v1.68a4,4,0,0,1,6.94.14,4,4,0,0,1,3.7-2.13c3.31,0,4.1,2.28,4.1,4.7v7.18h-3.7V58.85c0-1.6-.6-2.28-1.72-2.28s-1.95.65-1.95,2.84v6h-3.69V58.83c0-1.61-.58-2.26-1.71-2.26s-2,.65-2,2.84v6h-3.67Z" fill="#fff"/><path d="M457,60.58h-8.54c.07,1.51,1.08,2.33,2.71,2.33,1.13,0,1.85-.31,2.16-1h3.6c-.36,2.28-2.69,3.79-5.76,3.79-3.94,0-6.36-2.23-6.36-6.1s2.47-6.09,6.24-6.09c3.6,0,6.05,2.23,6.05,5.49A11.31,11.31,0,0,1,457,60.58Zm-3.53-2.28A2.17,2.17,0,0,0,451,56a2.31,2.31,0,0,0-2.57,2.35Z" fill="#fff"/><path d="M477.78,59.57c0,3.63-2.23,6.1-5.42,6.1a4.2,4.2,0,0,1-3.7-1.94v6.43H465V53.79h3.65v1.66a4.32,4.32,0,0,1,3.79-2C475.62,53.48,477.78,55.93,477.78,59.57Zm-3.74,0a2.77,2.77,0,1,0-2.74,3A2.77,2.77,0,0,0,474,59.57Z" fill="#fff"/><path d="M480,53.79h3.67v2.42a3.23,3.23,0,0,1,3.19-2.61,3.72,3.72,0,0,1,1,.09V57.1a7.82,7.82,0,0,0-1.1-.07c-2,0-3,1.3-3,3.86v4.47H480Z" fill="#fff"/><path d="M501,60.58h-8.55c.08,1.51,1.08,2.33,2.72,2.33,1.13,0,1.84-.31,2.16-1h3.6c-.36,2.28-2.69,3.79-5.76,3.79-3.94,0-6.36-2.23-6.36-6.1s2.47-6.09,6.24-6.09c3.6,0,6,2.23,6,5.49A13,13,0,0,1,501,60.58Zm-3.53-2.28A2.18,2.18,0,0,0,495,56a2.32,2.32,0,0,0-2.57,2.35Z" fill="#fff"/><path d="M516,59.57c0,3.63-2.24,6.1-5.43,6.1a4.22,4.22,0,0,1-3.7-1.94v6.43H503.2V53.79h3.64v1.66a4.35,4.35,0,0,1,3.8-2C513.81,53.48,516,55.93,516,59.57Zm-3.75,0a2.77,2.77,0,1,0-2.74,3A2.77,2.77,0,0,0,512.22,59.57Z" fill="#fff"/><path d="M517.72,63.25a2.38,2.38,0,1,1,2.37,2.35A2.35,2.35,0,0,1,517.72,63.25Z" fill="#fff"/><rect width="728" height="90" fill="none"/></g></g></svg>