<svg xmlns="http://www.w3.org/2000/svg" viewBox="0 0 728 90"><title>txt3b</title><g id="Layer_2" data-name="Layer 2"><g id="Layer_9" data-name="Layer 9"><path d="M394.86,59.57c0-3.53,2.45-6.09,6.43-6.09s6.41,2.56,6.41,6.09-2.45,6.1-6.41,6.1S394.86,63.1,394.86,59.57Zm9.19,0a2.77,2.77,0,1,0-2.76,3A2.71,2.71,0,0,0,404.05,59.57Z" fill="#fff"/><path d="M422.58,59.57c0,3.63-2.23,6.1-5.42,6.1a4.2,4.2,0,0,1-3.7-1.94v6.43h-3.65V53.79h3.65v1.66a4.32,4.32,0,0,1,3.79-2C420.42,53.48,422.58,55.93,422.58,59.57Zm-3.74,0a2.77,2.77,0,1,0-2.74,3A2.77,2.77,0,0,0,418.84,59.57Z" fill="#fff"/><path d="M436.14,60.58H427.6c.07,1.51,1.08,2.33,2.71,2.33,1.13,0,1.85-.31,2.16-1h3.6c-.36,2.28-2.69,3.79-5.76,3.79-3.94,0-6.36-2.23-6.36-6.1s2.47-6.09,6.24-6.09c3.6,0,6.05,2.23,6.05,5.49A13,13,0,0,1,436.14,60.58Zm-3.53-2.28A2.18,2.18,0,0,0,430.16,56a2.31,2.31,0,0,0-2.56,2.35Z" fill="#fff"/><path d="M438.35,53.79H442v1.68a3.91,3.91,0,0,1,3.74-2c2.81,0,4.23,1.58,4.23,4.73v7.15h-3.7v-6c0-1.95-.55-2.84-2-2.84s-2.23,1-2.23,2.74v6h-3.67Z" fill="#fff"/><path d="M470.39,58.21v7.15h-3.7v-6c0-1.95-.55-2.84-2-2.84s-2.23,1-2.23,2.74v6h-3.67V48.56h3.67v6.91a3.91,3.91,0,0,1,3.74-2C469,53.48,470.39,55.06,470.39,58.21Z" fill="#fff"/><path d="M472.4,59.57c0-3.53,2.45-6.09,6.44-6.09s6.4,2.56,6.4,6.09-2.44,6.1-6.4,6.1S472.4,63.1,472.4,59.57Zm9.2,0a2.77,2.77,0,1,0-2.76,3A2.72,2.72,0,0,0,481.6,59.57Z" fill="#fff"/><path d="M487.23,60.94V53.79H491v6.33c0,1.59.52,2.45,1.92,2.45,1.56,0,2.23-1,2.23-2.56V53.79h3.65V65.36h-3.65V63.7a3.78,3.78,0,0,1-3.6,2C488.72,65.67,487.23,63.94,487.23,60.94Z" fill="#fff"/><path d="M501,61.88h3.65c0,.79.77,1.34,1.9,1.34.79,0,1.34-.38,1.34-1s-.26-.84-1.25-1.08l-2.42-.6a3.38,3.38,0,0,1-2.91-3.39c0-2.18,2-3.62,5-3.62,3.26,0,5.16,1.27,5.16,3.57h-3.62c0-.81-.6-1.25-1.59-1.25-.79,0-1.32.39-1.32.94s.34.87,1.27,1.11l2.45.67c1.83.48,2.93,1.58,2.93,3.33,0,2.4-2,3.82-5.06,3.82C503.15,65.67,501,64.13,501,61.88Z" fill="#fff"/><path d="M525.13,60.58h-8.54c.07,1.51,1.08,2.33,2.71,2.33,1.13,0,1.85-.31,2.16-1h3.6c-.36,2.28-2.69,3.79-5.76,3.79-3.94,0-6.36-2.23-6.36-6.1s2.47-6.09,6.24-6.09c3.6,0,6.05,2.23,6.05,5.49A13,13,0,0,1,525.13,60.58ZM521.6,58.3A2.17,2.17,0,0,0,519.15,56a2.31,2.31,0,0,0-2.56,2.35Z" fill="#fff"/><path d="M526.55,61.88h3.64c0,.79.77,1.34,1.9,1.34.79,0,1.34-.38,1.34-1s-.26-.84-1.24-1.08l-2.43-.6a3.37,3.37,0,0,1-2.9-3.39c0-2.18,2-3.62,4.94-3.62,3.27,0,5.16,1.27,5.16,3.57h-3.62c0-.81-.6-1.25-1.59-1.25-.79,0-1.32.39-1.32.94s.34.87,1.28,1.11l2.44.67c1.83.48,2.93,1.58,2.93,3.33,0,2.4-2,3.82-5.06,3.82C528.73,65.67,526.55,64.13,526.55,61.88Z" fill="#fff"/><path d="M538.81,63.25a2.38,2.38,0,1,1,2.38,2.35A2.35,2.35,0,0,1,538.81,63.25Z" fill="#fff"/><rect width="728" height="90" fill="none"/></g></g></svg>