<svg xmlns="http://www.w3.org/2000/svg" viewBox="0 0 728 90"><title>txt4a</title><g id="Layer_2" data-name="Layer 2"><g id="Layer_11_copy" data-name="Layer 11 copy"><path d="M394.81,33.86h3.89a2.6,2.6,0,0,0,2.74,2.91c1.44,0,2.25-.68,2.25-1.85s-.52-1.56-2-2.16l-3-1.18A4.64,4.64,0,0,1,395.22,27c0-3,2.33-4.92,6-4.92s6.14,2.08,6.14,5.32h-3.89A2.13,2.13,0,0,0,401.13,25c-1.28,0-2,.65-2,1.66s.65,1.51,2.3,2.18l2.79,1.11a4.7,4.7,0,0,1,3.38,4.72c0,3.15-2.45,5.19-6.17,5.19C397.29,39.84,394.81,37.63,394.81,33.86Z" fill="#fff"/><path d="M417.06,39.36l-3.69-5v5h-3.65V22.56h3.65v10.1l3.79-4.87h4.32l-4.61,5.47,4.68,6.1Z" fill="#fff"/><path d="M423.06,24.55a2.27,2.27,0,1,1,2.26,2.23A2.21,2.21,0,0,1,423.06,24.55Zm.43,3.24h3.65V39.36h-3.65Z" fill="#fff"/><path d="M443,33.57c0,3.63-2.23,6.1-5.43,6.1a4.2,4.2,0,0,1-3.69-1.94v6.43h-3.65V27.79h3.65v1.66a4.32,4.32,0,0,1,3.79-2C440.8,27.48,443,29.93,443,33.57Zm-3.75,0a2.77,2.77,0,1,0-5.52,0,2.77,2.77,0,1,0,5.52,0Z" fill="#fff"/><path d="M458.34,36.43v2.93a15,15,0,0,1-2.45.19c-1.73,0-4.1-.38-4.1-4.25V30.69H450v-2.9h1.83V24.36h3.67v3.43h2.62v2.9h-2.62v3.84c0,1.71.7,2,1.61,2A10,10,0,0,0,458.34,36.43Z" fill="#fff"/><path d="M472.09,32.21v7.15H468.4v-6c0-1.95-.56-2.84-2-2.84s-2.24,1-2.24,2.74v6h-3.67V22.56h3.67v6.91a3.94,3.94,0,0,1,3.75-2Q472.09,27.48,472.09,32.21Z" fill="#fff"/><path d="M486.3,34.58h-8.54c.07,1.51,1.08,2.33,2.71,2.33,1.13,0,1.85-.31,2.16-1h3.6c-.36,2.28-2.69,3.79-5.76,3.79-3.94,0-6.36-2.23-6.36-6.1s2.47-6.09,6.24-6.09c3.6,0,6,2.23,6,5.49A13,13,0,0,1,486.3,34.58Zm-3.53-2.28A2.18,2.18,0,0,0,480.32,30a2.31,2.31,0,0,0-2.56,2.35Z" fill="#fff"/><rect width="728" height="90" fill="none"/></g></g></svg>