<svg xmlns="http://www.w3.org/2000/svg" viewBox="0 0 728 90"><title>txt4b</title><g id="Layer_2" data-name="Layer 2"><g id="Layer_11" data-name="Layer 11"><path d="M407.41,59.21v7.15h-3.69v-6c0-1.95-.55-2.84-2-2.84s-2.23,1-2.23,2.74v6h-3.68V49.56h3.68v6.91a3.91,3.91,0,0,1,3.74-2Q407.41,54.48,407.41,59.21Z" fill="#fff"/><path d="M409.5,60.57c0-3.45,2.14-6.09,5.5-6.09a3.94,3.94,0,0,1,3.62,2V54.79h3.65V66.36h-3.65V64.73A4.15,4.15,0,0,1,415,66.67C411.49,66.67,409.5,64.05,409.5,60.57Zm9.27,0a2.77,2.77,0,1,0-5.52,0,2.77,2.77,0,1,0,5.52,0Z" fill="#fff"/><path d="M424.48,62.88h3.64c0,.79.77,1.34,1.9,1.34.79,0,1.34-.38,1.34-1s-.26-.84-1.24-1.08l-2.43-.6a3.37,3.37,0,0,1-2.9-3.39c0-2.18,2-3.62,4.94-3.62,3.27,0,5.16,1.27,5.16,3.57h-3.62c0-.81-.6-1.25-1.59-1.25-.79,0-1.32.39-1.32.94s.34.87,1.28,1.11l2.44.67c1.83.48,2.93,1.58,2.93,3.33,0,2.4-2,3.82-5.06,3.82C426.66,66.67,424.48,65.13,424.48,62.88Z" fill="#fff"/><path d="M436.45,62.88h3.65c0,.79.77,1.34,1.9,1.34.79,0,1.34-.38,1.34-1s-.26-.84-1.25-1.08l-2.42-.6a3.38,3.38,0,0,1-2.91-3.39c0-2.18,2-3.62,4.95-3.62,3.26,0,5.16,1.27,5.16,3.57h-3.63c0-.81-.6-1.25-1.58-1.25-.79,0-1.32.39-1.32.94s.34.87,1.27,1.11l2.45.67c1.82.48,2.93,1.58,2.93,3.33,0,2.4-2,3.82-5.07,3.82C438.64,66.67,436.45,65.13,436.45,62.88Z" fill="#fff"/><path d="M449.27,49.56h3.67v16.8h-3.67Z" fill="#fff"/><path d="M467.24,61.58H458.7c.07,1.51,1.08,2.33,2.71,2.33,1.13,0,1.85-.31,2.16-1h3.6c-.36,2.28-2.69,3.79-5.76,3.79-3.93,0-6.36-2.23-6.36-6.1s2.47-6.09,6.24-6.09c3.6,0,6,2.23,6,5.49A11.31,11.31,0,0,1,467.24,61.58Zm-3.52-2.28A2.18,2.18,0,0,0,461.27,57a2.31,2.31,0,0,0-2.57,2.35Z" fill="#fff"/><path d="M469,64.25a2.38,2.38,0,1,1,2.37,2.35A2.35,2.35,0,0,1,469,64.25Z" fill="#fff"/><rect width="728" height="90" fill="none"/></g></g></svg>