<svg xmlns="http://www.w3.org/2000/svg" viewBox="0 0 728 90"><title>txt5</title><g id="Layer_2" data-name="Layer 2"><g id="Layer_13" data-name="Layer 13"><path d="M40.36,35.67h2.19V52.48H40.36Z" fill="#fff"/><path d="M46.27,41.41h2.08v2a4,4,0,0,1,3.87-2.33c2.71,0,4.1,1.59,4.1,4.54v6.82H54.26V46.57c0-2.47-.82-3.65-2.78-3.65s-3.13,1.47-3.13,3.7v5.86H46.27Z" fill="#fff"/><path d="M65.52,50.6v1.85a9.21,9.21,0,0,1-1.88.17c-1.29,0-3.38-.24-3.38-3.82V43.16h-2V41.41h2v-3.5h2.09v3.5h2.78v1.75H62.35v5.19c0,2.11.72,2.4,1.77,2.4A7.42,7.42,0,0,0,65.52,50.6Z" fill="#fff"/><path d="M68,41.41h2.08v2.52a3.26,3.26,0,0,1,3.24-2.69,4.15,4.15,0,0,1,1,.1v1.92a5,5,0,0,0-1-.07c-2.18,0-3.22,2-3.22,4.46v4.83H68Z" fill="#fff"/><path d="M75.45,47A5.76,5.76,0,1,1,87,47a5.76,5.76,0,1,1-11.52,0Zm9.43,0c0-2.24-1.34-4-3.67-4a3.64,3.64,0,0,0-3.7,4,3.69,3.69,0,1,0,7.37,0Z" fill="#fff"/><path d="M100.17,35.67V52.48H98.11V50.53a4.41,4.41,0,0,1-3.94,2.23c-3.53,0-5.47-2.54-5.47-5.8s2.09-5.84,5.52-5.84a4.26,4.26,0,0,1,3.89,2.26V35.67ZM98.2,47a3.73,3.73,0,1,0-7.44,0,3.73,3.73,0,1,0,7.44,0Z" fill="#fff"/><path d="M103.65,48.23V41.41h2.09v6.34c0,1.94.72,3.21,2.69,3.21,2.28,0,3.14-1.72,3.14-3.5V41.41h2.09V52.48h-2.09v-2a3.86,3.86,0,0,1-3.72,2.3C105.38,52.76,103.65,51.28,103.65,48.23Z" fill="#fff"/><path d="M116.37,47c0-3.44,2.09-5.81,5.5-5.81,3,0,4.89,1.63,5.16,4.1h-2.09c-.29-1.46-1.35-2.23-3.1-2.23-2.11,0-3.41,1.46-3.41,3.94s1.3,3.93,3.41,3.93c1.75,0,2.81-.77,3.1-2.16H127c-.27,2.43-2.19,4-5.16,4C118.46,52.76,116.37,50.39,116.37,47Z" fill="#fff"/><path d="M129,37.83a1.7,1.7,0,1,1,3.39,0,1.7,1.7,0,0,1-3.39,0Zm.67,3.58h2.07V52.48h-2.07Z" fill="#fff"/><path d="M135.38,41.41h2.09v2a3.93,3.93,0,0,1,3.86-2.33c2.71,0,4.11,1.59,4.11,4.54v6.82h-2.07V46.57c0-2.47-.82-3.65-2.78-3.65s-3.12,1.47-3.12,3.7v5.86h-2.09Z" fill="#fff"/><path d="M159.5,41.41V52.19a5.55,5.55,0,0,1-1.92,4.65,6.29,6.29,0,0,1-3.82,1,6.81,6.81,0,0,1-3.93-1.08,3.73,3.73,0,0,1-1.64-2.93h2.19c.14,1.29,1.25,2.25,3.36,2.25,2.4,0,3.7-1.15,3.7-3.79v-1.8a4.43,4.43,0,0,1-3.94,2.23c-3.38,0-5.47-2.54-5.47-5.8a5.5,5.5,0,0,1,5.52-5.84,4.22,4.22,0,0,1,3.89,2.26v-2Zm-2,5.55a3.73,3.73,0,1,0-7.44,0,3.73,3.73,0,1,0,7.44,0Z" fill="#fff"/><rect width="728" height="90" fill="none"/></g></g></svg>