<svg xmlns="http://www.w3.org/2000/svg" viewBox="0 0 728 90"><title>txt6</title><g id="Layer_2" data-name="Layer 2"><g id="Layer_14" data-name="Layer 14"><path d="M372.83,59.52a12.61,12.61,0,0,1-5.28-1.07,11.91,11.91,0,0,1-4-2.85,12.69,12.69,0,0,1-2.51-4.09,13.62,13.62,0,0,1,0-9.58,12.73,12.73,0,0,1,2.51-4.1,11.91,11.91,0,0,1,4-2.85,13.68,13.68,0,0,1,10.56,0,12.11,12.11,0,0,1,4,2.85,12.81,12.81,0,0,1,2.5,4.1,13.51,13.51,0,0,1,0,9.58,12.66,12.66,0,0,1-2.5,4.09,12,12,0,0,1-4,2.85A12.46,12.46,0,0,1,372.83,59.52Zm0-2.87a8.71,8.71,0,0,0,3.86-.84,8.82,8.82,0,0,0,2.92-2.22,10,10,0,0,0,1.84-3.16,10.94,10.94,0,0,0,.65-3.71,11.05,11.05,0,0,0-.65-3.73,10.11,10.11,0,0,0-1.83-3.18,9,9,0,0,0-13.59,0A9.94,9.94,0,0,0,364.17,43a11.1,11.1,0,0,0,0,7.43A10,10,0,0,0,366,53.59,9,9,0,0,0,369,55.81a8.68,8.68,0,0,0,3.88.84Z" fill="#fff"/><path d="M398.68,35.3a5.9,5.9,0,0,0-.92-.23,7.17,7.17,0,0,0-1-.08,7.71,7.71,0,0,0-1.07.08,2.22,2.22,0,0,0-1,.4,2.33,2.33,0,0,0-.71,1,5.21,5.21,0,0,0-.26,1.84v3h5v2.8h-5V58.92h-3.34l0-14.86h-3.76v-2.8h3.76V38.63a8.8,8.8,0,0,1,.63-3.7,5,5,0,0,1,1.55-2,4.52,4.52,0,0,1,1.95-.8,12.16,12.16,0,0,1,1.8-.16,6.58,6.58,0,0,1,1.4.14,4.19,4.19,0,0,1,1,.33Z" fill="#fff"/><path d="M408.91,35.3a5.9,5.9,0,0,0-.92-.23,7.17,7.17,0,0,0-1-.08,7.82,7.82,0,0,0-1.07.08,2,2,0,0,0-1.68,1.38,5,5,0,0,0-.27,1.84v3h5v2.79h-5V58.92h-3.34l0-14.86h-3.76v-2.8h3.76l0-2.63a8.78,8.78,0,0,1,.64-3.7,5,5,0,0,1,1.55-2,4.39,4.39,0,0,1,1.93-.8,11.89,11.89,0,0,1,1.78-.16,6.9,6.9,0,0,1,1.44.14,4.68,4.68,0,0,1,1,.32Z" fill="#fff"/><path d="M413,51.11a7.62,7.62,0,0,0,.37,2.13,5.08,5.08,0,0,0,1,1.76A4.45,4.45,0,0,0,416,56.22a6.17,6.17,0,0,0,2.5.45,4.72,4.72,0,0,0,3-.84,4.6,4.6,0,0,0,1.47-2h3.44a6.57,6.57,0,0,1-2.5,3.95,8,8,0,0,1-2.39,1.25,9.17,9.17,0,0,1-3,.47,9.57,9.57,0,0,1-3.91-.74,7.91,7.91,0,0,1-2.77-2,8.06,8.06,0,0,1-1.64-3,11.38,11.38,0,0,1-.55-3.61,11.71,11.71,0,0,1,.58-3.72,8.66,8.66,0,0,1,1.71-3,7.84,7.84,0,0,1,2.73-2,9.49,9.49,0,0,1,3.74-.7,8.45,8.45,0,0,1,3.22.61,7.89,7.89,0,0,1,5,7.41c0,.26,0,.57,0,.94a11.3,11.3,0,0,1-.14,1.29Zm5.32-7.62a5.37,5.37,0,0,0-3.76,1.31A5,5,0,0,0,413,48.53h10.28a4.82,4.82,0,0,0-1.42-3.69,5,5,0,0,0-3.58-1.35Z" fill="#fff"/><path d="M440.26,44.17a7.49,7.49,0,0,0-.86-.15,6.79,6.79,0,0,0-.78,0,5.08,5.08,0,0,0-4.32,1.87,7.92,7.92,0,0,0-1.43,5v8.09h-3.32V41.35h3.32v3.16a5.6,5.6,0,0,1,2.3-2.65,6.4,6.4,0,0,1,3.45-1,4.33,4.33,0,0,1,1.64.27Z" fill="#fff"/><path d="M449.79,49.2c.68.21,1.34.43,2,.66a6.75,6.75,0,0,1,1.7.9,4,4,0,0,1,1.2,1.37,4.29,4.29,0,0,1,.45,2.07,4.94,4.94,0,0,1-.53,2.33,4.69,4.69,0,0,1-1.47,1.66,6.85,6.85,0,0,1-2.2,1,11.2,11.2,0,0,1-2.76.33,10.32,10.32,0,0,1-2.82-.39,6.67,6.67,0,0,1-2.32-1.2,5.94,5.94,0,0,1-1.61-2,6.29,6.29,0,0,1-.6-2.82h3.32A3.29,3.29,0,0,0,445.31,56a5.11,5.11,0,0,0,3,.84,4.79,4.79,0,0,0,2.6-.61,2.13,2.13,0,0,0,.95-1.93,1.74,1.74,0,0,0-.39-1.19,3.38,3.38,0,0,0-1.11-.8,10.25,10.25,0,0,0-1.78-.65c-.7-.19-1.5-.45-2.39-.76-.67-.21-1.31-.43-1.89-.67a5.33,5.33,0,0,1-1.53-.89,4,4,0,0,1-1-1.33,4.71,4.71,0,0,1,1.54-5.81,6.66,6.66,0,0,1,2.11-1,9.77,9.77,0,0,1,2.58-.33,8.25,8.25,0,0,1,2.7.43,6.4,6.4,0,0,1,2.17,1.23,6,6,0,0,1,1.45,1.9,5.37,5.37,0,0,1,.52,2.43h-3.28a3.11,3.11,0,0,0-.92-2.41,3.84,3.84,0,0,0-2.68-.84,4.08,4.08,0,0,0-2.34.63,2,2,0,0,0-.94,1.83,1.76,1.76,0,0,0,.33,1.1,2.69,2.69,0,0,0,1,.74,12.86,12.86,0,0,0,1.6.61Z" fill="#fff"/><path d="M327,41.31h5.63l1.63,5.33c.54,1.77,1,3.43,1.46,5.11h.07c.46-1.65.94-3.4,1.48-5.1l1.71-5.33h4.16l1.68,5.33c.56,1.82,1,3.41,1.45,5.1h.07c.44-1.69.92-3.32,1.46-5.1l1.63-5.33h5.23L349,58.93h-5.14l-1.4-4.42c-.54-1.73-1.06-3.5-1.5-5.13h-.07q-.66,2.44-1.52,5.1l-1.43,4.45h-5.24Z" fill="#fff"/><rect x="289.08" y="32.01" width="5.69" height="26.93" fill="#fff"/><rect x="299" y="32.01" width="5.69" height="26.93" fill="#fff"/><path d="M307.51,50.18a9.58,9.58,0,1,1,9.6,9.34,9.34,9.34,0,0,1-9.6-9.34m13.68,0a4.12,4.12,0,1,0-4.08,4.41,4.16,4.16,0,0,0,4.08-4.41" fill="#fff"/><polygon points="256.14 34.5 256.14 39.69 266.21 39.69 266.24 39.76 255.84 57.44 255.84 58.93 275.44 58.93 275.44 53.75 264.55 53.75 264.51 53.68 274.91 36 274.9 36 274.9 34.5 256.14 34.5" fill="#fff"/><path d="M281.92,32.49a3.2,3.2,0,1,1-3.24,3.2,3.23,3.23,0,0,1,3.24-3.2m-2.85,8.83h5.69V58.93h-5.69Z" fill="#fff"/><path d="M358.27,38.73a.82.82,0,0,0-.84-.86h-.91v2.47h.41V39.6h.39l.46.74h.45l-.48-.8A.83.83,0,0,0,358.27,38.73Zm-.87.51h-.47v-1h.47a.47.47,0,0,1,.47.5A.48.48,0,0,1,357.4,39.24Z" fill="#fff"/><path d="M357.3,37a2.14,2.14,0,1,0,2.14,2.14h0A2.15,2.15,0,0,0,357.3,37Zm0,3.86A1.73,1.73,0,1,1,359,39.14h0A1.73,1.73,0,0,1,357.3,40.87Z" fill="#fff"/><rect width="728" height="90" fill="none"/></g></g></svg>